<svg width="687" height="723" viewBox="0 0 687 723" fill="none" xmlns="http://www.w3.org/2000/svg">
<g opacity="0.02">
<path d="M543.597 613.905C543.597 613.905 471.687 568.726 467.553 412.565C464.348 291.648 418.776 254.23 303.779 273.786C188.785 293.328 127.594 315.007 90.196 187.737" stroke="white" stroke-miterlimit="10"/>
<path d="M544.998 612.085C544.998 612.085 474.542 564.163 467.402 411.473C461.862 292.991 414.247 258.76 300.527 275.603C186.799 292.454 128.566 312.953 90.3034 187.028" stroke="#F9F9F9" stroke-miterlimit="10"/>
<path d="M546.403 610.274C546.403 610.274 477.394 559.579 467.263 410.381C459.389 294.32 409.743 263.291 297.279 277.428C184.819 291.573 129.549 310.899 90.4101 186.32" stroke="#F3F3F3" stroke-miterlimit="10"/>
<path d="M547.793 608.454C547.793 608.454 480.212 554.98 467.114 409.288C456.889 295.64 405.224 267.813 294.025 279.26C182.834 290.699 130.522 308.844 90.5168 185.625" stroke="white" stroke-miterlimit="10"/>
<path d="M549.201 606.635C549.201 606.635 483.039 550.366 466.971 408.196C454.398 296.931 400.702 272.343 290.773 281.084C180.843 289.825 131.501 306.789 90.6243 184.924" stroke="white" stroke-miterlimit="10"/>
<path d="M550.593 604.818C550.593 604.818 485.834 545.732 466.824 407.107C451.892 298.224 396.186 276.868 287.524 282.904C178.863 288.939 132.485 304.729 90.7381 184.203" stroke="white" stroke-miterlimit="10"/>
<path d="M552.005 603.002C552.005 603.002 488.638 541.085 466.685 406.018C449.378 299.496 391.676 281.394 284.276 284.732C176.876 288.069 133.468 302.678 90.8444 183.498" stroke="white" stroke-miterlimit="10"/>
<path d="M553.393 601.189C553.393 601.189 491.395 536.425 466.528 404.924C446.836 300.749 387.147 285.93 281.015 286.562C174.883 287.193 134.434 300.622 90.9439 182.802" stroke="#D3D3D3" stroke-miterlimit="10"/>
<path d="M554.798 599.368C554.798 599.368 494.147 531.744 466.387 403.838C444.291 302.002 382.635 290.459 277.765 288.393C172.909 286.311 135.422 298.566 91.0683 182.092" stroke="white" stroke-miterlimit="10"/>
<path d="M556.201 597.55C556.201 597.55 496.867 527.058 466.247 402.74C441.732 303.221 378.117 294.983 274.522 290.204C170.92 285.431 136.397 296.512 91.1661 181.385" stroke="white" stroke-miterlimit="10"/>
<path d="M557.601 595.736C557.601 595.736 499.565 522.368 466.107 401.653C439.156 304.443 373.607 299.511 271.279 292.04C168.945 284.562 137.38 294.463 91.2847 180.681" stroke="white" stroke-miterlimit="10"/>
<path d="M559.006 593.918C559.006 593.918 502.252 517.667 465.961 400.562C436.561 305.663 369.096 304.043 268.024 293.867C166.952 283.69 138.357 292.41 91.3899 179.982" stroke="white" stroke-miterlimit="10"/>
<path d="M560.405 592.104C560.405 592.104 504.889 512.963 465.821 399.476C433.942 306.878 364.578 308.578 264.775 295.696C164.976 282.822 139.339 290.36 91.4954 179.278" stroke="white" stroke-miterlimit="10"/>
<path d="M561.803 590.293C561.803 590.293 507.501 508.261 465.668 398.391C431.286 308.081 360.055 313.109 261.519 297.521C162.989 281.941 140.311 288.299 91.6004 178.577" stroke="white" stroke-miterlimit="10"/>
<path d="M563.194 588.466C563.194 588.466 510.072 503.552 465.515 397.284C428.611 309.269 355.531 317.616 258.262 299.338C160.993 281.06 141.285 286.237 91.6981 177.861" stroke="white" stroke-miterlimit="10"/>
<path d="M564.601 586.653C564.601 586.653 512.622 498.856 465.382 396.198C425.937 310.485 351.021 322.153 255.02 301.169C159.02 280.185 142.275 284.188 91.8236 177.159" stroke="white" stroke-miterlimit="10"/>
<path d="M566.004 584.839C566.004 584.839 515.142 494.174 465.234 395.112C423.217 311.694 346.507 326.688 251.77 302.991C157.038 279.302 143.251 282.124 91.9281 176.448" stroke="white" stroke-miterlimit="10"/>
<path d="M567.407 583.018C567.407 583.018 517.622 489.501 465.098 394.018C420.482 312.911 342.001 331.21 248.525 304.815C155.054 278.427 144.238 280.068 92.043 175.746" stroke="white" stroke-miterlimit="10"/>
<path d="M568.799 581.209C568.799 581.209 520.064 484.853 464.939 392.936C417.696 314.153 337.464 335.75 245.262 306.656C153.059 277.563 145.206 278.031 92.1347 175.054" stroke="white" stroke-miterlimit="10"/>
<path d="M570.205 579.383C570.205 579.383 522.481 480.204 464.801 391.83C414.911 315.394 332.956 340.259 242.015 308.467C151.074 276.675 146.186 275.955 92.2481 174.339" stroke="white" stroke-miterlimit="10"/>
<path d="M571.607 577.569C571.607 577.569 524.876 475.597 464.657 390.751C412.086 316.669 328.441 344.794 238.761 310.304C149.088 275.807 147.164 273.913 92.3562 173.636" stroke="white" stroke-miterlimit="10"/>
<path d="M573.003 575.756C573.003 575.756 527.219 471.013 464.509 389.658C409.241 317.96 323.92 349.331 235.511 312.12C147.107 274.917 148.138 271.858 92.4665 172.926" stroke="white" stroke-miterlimit="10"/>
<path d="M574.407 573.936C574.407 573.936 529.558 466.458 464.374 388.564C406.375 319.273 319.415 353.852 232.273 313.951C145.13 274.049 149.126 269.802 92.5828 172.223" stroke="white" stroke-miterlimit="10"/>
<path d="M575.798 572.12C575.798 572.12 531.858 461.923 464.214 387.476C403.473 320.628 314.878 358.386 229.003 315.779C143.129 273.172 150.088 267.751 92.6735 171.526" stroke="white" stroke-miterlimit="10"/>
<path d="M577.207 570.303C577.207 570.303 534.155 457.431 464.083 386.386C400.577 322.003 310.376 362.911 225.77 317.599C141.15 272.301 151.075 265.691 92.7882 170.82" stroke="white" stroke-miterlimit="10"/>
<path d="M578.598 568.484C578.598 568.484 536.413 452.972 463.923 385.294C397.636 323.405 305.846 367.434 222.501 319.423C139.157 271.412 152.05 263.636 92.894 170.103" stroke="white" stroke-miterlimit="10"/>
<path d="M580.008 566.672C580.008 566.672 538.678 448.545 463.789 384.202C394.709 324.845 301.346 371.964 219.263 321.255C137.186 270.538 153.038 261.582 93.0102 169.402" stroke="white" stroke-miterlimit="10"/>
<path d="M581.404 564.851C581.404 564.851 540.924 444.152 463.639 383.115C391.742 326.328 296.818 376.499 216.003 323.085C135.188 269.67 154.01 259.532 93.1109 168.706" stroke="white" stroke-miterlimit="10"/>
<path d="M582.809 563.04C582.809 563.04 543.163 439.799 463.5 382.025C388.783 327.835 292.31 381.024 212.763 324.903C133.216 268.783 155.002 257.472 93.2255 167.992" stroke="white" stroke-miterlimit="10"/>
<path d="M584.205 561.228C584.205 561.228 545.393 435.482 463.357 380.94C385.814 329.378 287.79 385.546 209.51 326.735C131.23 267.924 155.975 255.417 93.3327 167.298" stroke="white" stroke-miterlimit="10"/>
<path d="M585.606 559.4C585.606 559.4 547.624 431.178 463.207 379.839C382.838 330.957 283.268 390.075 206.256 328.558C129.244 267.041 156.953 253.361 93.4409 166.58" stroke="white" stroke-miterlimit="10"/>
<path d="M587 557.588C587 557.588 549.85 426.927 463.057 378.747C379.86 332.559 278.753 394.605 202.997 330.382C127.254 266.16 157.925 251.306 93.5418 165.879" stroke="white" stroke-miterlimit="10"/>
<path d="M588.408 555.767C588.408 555.767 552.097 422.696 462.918 377.66C376.895 334.204 274.237 399.14 199.757 332.205C125.274 265.284 158.911 249.242 93.6562 165.168" stroke="white" stroke-miterlimit="10"/>
<path d="M589.806 553.957C589.806 553.957 554.338 418.5 462.772 376.57C373.923 335.882 269.72 403.666 196.507 334.039C123.293 264.413 159.886 247.205 93.7664 164.477" stroke="white" stroke-miterlimit="10"/>
<path d="M591.202 552.144C591.202 552.144 556.585 414.329 462.629 375.484C370.957 337.587 265.2 408.202 193.254 335.869C121.309 263.537 160.866 245.156 93.8764 163.766" stroke="white" stroke-miterlimit="10"/>
<path d="M592.612 550.324C592.612 550.324 558.861 410.173 462.488 374.391C368.001 339.314 260.687 412.723 190.004 337.693C119.327 262.655 161.848 243.086 93.9803 163.057" stroke="white" stroke-miterlimit="10"/>
<path d="M594.001 548.502C594.001 548.502 561.132 406.038 462.333 373.289C365.052 341.061 256.173 417.251 186.745 339.515C117.329 261.779 162.814 241.036 94.0815 162.353" stroke="white" stroke-miterlimit="10"/>
<path d="M595.417 546.684C595.417 546.684 563.44 401.921 462.202 372.205C362.128 342.827 251.659 421.782 183.512 341.34C115.365 260.899 163.813 238.982 94.2092 161.653" stroke="white" stroke-miterlimit="10"/>
<path d="M596.812 544.872C596.812 544.872 565.738 397.825 462.053 371.114C359.193 344.614 247.14 426.305 180.254 343.165C113.368 260.025 164.781 236.921 94.3056 160.944" stroke="white" stroke-miterlimit="10"/>
<path d="M598.208 543.058C598.208 543.058 568.054 393.75 461.904 370.034C356.274 346.436 242.62 430.841 176.995 345.003C111.378 259.157 165.754 234.879 94.4143 160.249" stroke="white" stroke-miterlimit="10"/>
<path d="M599.614 541.237C599.614 541.237 570.395 389.675 461.765 368.933C353.378 348.236 238.103 435.362 173.755 346.811C109.399 258.267 166.745 232.808 94.5287 159.524" stroke="white" stroke-miterlimit="10"/>
<path d="M601.01 539.428C601.01 539.428 572.745 385.618 461.617 367.844C350.488 350.069 233.59 439.895 170.502 348.645C107.415 257.396 167.72 230.756 94.6364 158.832" stroke="white" stroke-miterlimit="10"/>
</g>
</svg>
