<svg width="1290" height="403" viewBox="0 0 1290 403" fill="none" xmlns="http://www.w3.org/2000/svg">
<mask id="mask0_1007_14219" style="mask-type:luminance" maskUnits="userSpaceOnUse" x="0" y="0" width="1290" height="403">
<path d="M1260.61 0H29.38C13.1539 0 0 13.154 0 29.3801V372.81C0 389.036 13.1539 402.19 29.38 402.19H1260.61C1276.84 402.19 1289.99 389.036 1289.99 372.81V29.3801C1289.99 13.154 1276.84 0 1260.61 0Z" fill="white"/>
</mask>
<g mask="url(#mask0_1007_14219)">
<mask id="mask1_1007_14219" style="mask-type:luminance" maskUnits="userSpaceOnUse" x="-13" y="-60" width="1317" height="707">
<path d="M1303.68 -59.2695H-12.4297V646.431H1303.68V-59.2695Z" fill="white"/>
</mask>
<g mask="url(#mask1_1007_14219)">
<mask id="mask2_1007_14219" style="mask-type:luminance" maskUnits="userSpaceOnUse" x="-13" y="-60" width="1317" height="707">
<path d="M1303.68 -59.2695H-12.4297V646.431H1303.68V-59.2695Z" fill="white"/>
</mask>
<g mask="url(#mask2_1007_14219)">
<path d="M1303.67 -59.2695H-12.4199V646.43H1303.67V-59.2695Z" fill="#320070"/>
<path opacity="0.2" fill-rule="evenodd" clip-rule="evenodd" d="M1303.67 295.721C1180.91 414.634 1072.11 531.534 977.27 646.421H1303.67V295.721Z" fill="#6900EA"/>
<path opacity="0.2" fill-rule="evenodd" clip-rule="evenodd" d="M1303.67 331.291C1190.61 437.958 1089.4 543.001 1000.03 646.421H1303.67V331.291Z" fill="#6900EA"/>
<path opacity="0.2" fill-rule="evenodd" clip-rule="evenodd" d="M1303.67 25.5713C1254.87 63.0913 1207.2 100.758 1160.67 138.571C947.837 311.991 766.634 481.288 617.061 646.461H1141.57C1192.8 596.801 1246.85 546.551 1303.71 495.711L1303.67 25.5713Z" fill="#6900EA"/>
<path opacity="0.2" fill-rule="evenodd" clip-rule="evenodd" d="M1303.67 -42.9189C1254.87 -4.33894 1207.2 34.3776 1160.67 73.231C926.502 269.424 730.626 460.474 573.039 646.381H1091.23C1156.99 578.848 1227.8 510.214 1303.67 440.481V-42.9189Z" fill="#6900EA"/>
<path opacity="0.2" fill-rule="evenodd" clip-rule="evenodd" d="M1303.67 227.081C1254.87 267.141 1207.2 307.344 1160.67 347.691C1044.7 448.618 938.156 548.194 841.029 646.421H1303.67V227.081Z" fill="#6900EA"/>
<path opacity="0.2" fill-rule="evenodd" clip-rule="evenodd" d="M1303.67 -59.2695H962.209C660.469 177.71 433.156 412.941 280.27 646.421H734.07C880.516 476.301 1070.38 301.714 1303.67 122.661V-59.2695Z" fill="#9900CC"/>
<path opacity="0.2" fill-rule="evenodd" clip-rule="evenodd" d="M1303.67 -59.2695H1002.67C685.891 177.297 447.711 412.527 288.131 646.421H765.471C906.331 490.267 1085.73 330.53 1303.67 167.21V-59.2695Z" fill="#9900CC"/>
<path opacity="0.2" fill-rule="evenodd" clip-rule="evenodd" d="M349.51 646.421C530.023 444.921 778.893 237.721 1096.12 24.8206C1138.2 -3.54611 1180.97 -31.5762 1224.42 -59.2695H573.87C330.99 119.024 135.56 296.807 -12.4199 474.081V646.401L349.51 646.421Z" fill="#9900CC"/>
<path opacity="0.2" fill-rule="evenodd" clip-rule="evenodd" d="M322.491 646.421C505.911 427.154 766.098 201.051 1103.05 -31.8894C1116.25 -41.0627 1129.52 -50.1895 1142.87 -59.2695H506.621C294.534 107.63 121.534 273.964 -12.3789 439.73V646.421H322.491Z" fill="#9900CC"/>
<path opacity="0.2" fill-rule="evenodd" clip-rule="evenodd" d="M1303.67 -59.2695H854.789C509.183 177.237 235.093 412.467 32.5195 646.421H580.219C719.746 517.154 882.463 385.624 1068.37 251.831C1144.58 196.757 1223.02 142.837 1303.67 90.0706V-59.2695Z" fill="#9900CC"/>
<path opacity="0.2" fill-rule="evenodd" clip-rule="evenodd" d="M-12.4199 573.191C90.9801 358.951 281.703 148.13 559.75 -59.2695H7.27008C0.603415 -52.4695 -5.95992 -45.6527 -12.4199 -38.8193V573.191Z" fill="#FF00FF"/>
<path opacity="0.2" fill-rule="evenodd" clip-rule="evenodd" d="M-12.4199 611.171C89.8201 382.611 295.917 159.13 605.87 -59.2695H19.0901C8.38341 -48.7629 -2.11992 -38.2227 -12.4199 -27.6494V611.171Z" fill="#FF00FF"/>
<path opacity="0.2" fill-rule="evenodd" clip-rule="evenodd" d="M-12.4199 41.7207C27.0067 7.91403 69.0068 -25.7526 113.58 -59.2793H-12.4199V41.7207Z" fill="#FF00FF"/>
<path opacity="0.2" fill-rule="evenodd" clip-rule="evenodd" d="M-12.4199 14.7012C15.3601 -10.0322 44.4268 -34.6988 74.7801 -59.2988H-12.4199V14.7012Z" fill="#FF00FF"/>
<path opacity="0.2" fill-rule="evenodd" clip-rule="evenodd" d="M-12.4199 246.701C109.34 143.801 251.673 41.8012 414.58 -59.2988H-12.4199V246.701Z" fill="#FF00FF"/>
<path opacity="0.2" fill-rule="evenodd" clip-rule="evenodd" d="M-12.4199 291.431C110.34 172.524 219.14 55.6238 313.98 -59.2695H-12.4199V291.431Z" fill="#6900EA"/>
<path opacity="0.2" fill-rule="evenodd" clip-rule="evenodd" d="M-12.4199 255.861C100.64 149.194 201.857 44.1505 291.23 -59.2695H-12.4199V255.861Z" fill="#6900EA"/>
<path opacity="0.2" fill-rule="evenodd" clip-rule="evenodd" d="M-12.4199 561.581C36.3801 524.061 84.0467 486.394 130.58 448.581C343.44 275.181 524.657 105.897 674.23 -59.2695H149.72C98.4868 -9.60953 44.4401 40.6405 -12.4199 91.4805V561.581Z" fill="#6900EA"/>
<path opacity="0.2" fill-rule="evenodd" clip-rule="evenodd" d="M-12.4199 630.081C36.3801 591.501 84.0467 552.784 130.58 513.931C364.773 317.697 560.667 126.63 718.26 -59.2695H200.07C134.27 8.29713 63.4401 76.9406 -12.4199 146.661V630.081Z" fill="#6900EA"/>
<path opacity="0.2" fill-rule="evenodd" clip-rule="evenodd" d="M-12.4199 360.081C36.3801 320.014 84.0467 279.807 130.58 239.461C246.52 138.594 353.053 39.0274 450.18 -59.2393H-12.4199V360.081Z" fill="#6900EA"/>
<path opacity="0.2" fill-rule="evenodd" clip-rule="evenodd" d="M-12.4199 646.421H329.04C630.78 409.441 858.093 174.21 1010.98 -59.2695H557.18C410.733 110.85 220.867 285.434 -12.4199 464.48V646.421Z" fill="#9900CC"/>
<path opacity="0.2" fill-rule="evenodd" clip-rule="evenodd" d="M-12.4199 646.421H288.58C605.36 409.847 843.543 174.617 1003.13 -59.2695H525.78C384.92 96.8771 205.52 256.614 -12.4199 419.941V646.421Z" fill="#9900CC"/>
<path opacity="0.2" fill-rule="evenodd" clip-rule="evenodd" d="M941.74 -59.2695C761.233 142.23 512.363 349.431 195.13 562.331C153.063 590.697 110.297 618.727 66.8301 646.421H717.38C960.26 468.121 1155.69 290.341 1303.67 113.081V-59.2695H941.74Z" fill="#9900CC"/>
<path opacity="0.2" fill-rule="evenodd" clip-rule="evenodd" d="M968.761 -59.2695C785.341 160.004 525.154 386.121 188.201 619.081C175.001 628.241 161.728 637.367 148.381 646.46H784.641C996.721 479.547 1169.72 313.214 1303.64 147.46V-59.2695H968.761Z" fill="#9900CC"/>
<path opacity="0.2" fill-rule="evenodd" clip-rule="evenodd" d="M1303.67 13.9609C1200.28 228.201 1009.56 439.021 731.5 646.421H1283.98C1290.65 639.608 1297.21 632.791 1303.67 625.971V13.9609Z" fill="#FF00FF"/>
<path opacity="0.2" fill-rule="evenodd" clip-rule="evenodd" d="M1303.67 -24.0195C1201.43 204.54 995.323 428.021 685.35 646.421H1272.16C1282.87 635.907 1293.38 625.367 1303.67 614.801V-24.0195Z" fill="#FF00FF"/>
<path opacity="0.2" fill-rule="evenodd" clip-rule="evenodd" d="M1303.67 340.451C1181.92 443.351 1039.59 545.351 876.67 646.451H1303.67V340.451Z" fill="#FF00FF"/>
</g>
</g>
</g>
</svg>
