<svg width="62" height="62" viewBox="0 0 62 62" fill="none" xmlns="http://www.w3.org/2000/svg">
<path d="M57.6895 0.44043H4.29956C2.16774 0.44043 0.439453 2.16847 0.439453 4.30029V57.6904C0.439453 59.8223 2.16774 61.5503 4.29956 61.5503H57.6895C59.8213 61.5503 61.5496 59.8223 61.5496 57.6904V4.30029C61.5496 2.16847 59.8213 0.44043 57.6895 0.44043Z" stroke="url(#paint0_linear_1007_14308)" stroke-width="0.88" stroke-miterlimit="10"/>
<path d="M11.6406 41.5508H13.6406C14.3062 41.592 14.9311 41.8857 15.3878 42.3716C15.8446 42.8575 16.0988 43.4992 16.0988 44.166C16.0988 44.8329 15.8446 45.4746 15.3878 45.9604C14.9311 46.4463 14.3062 46.7396 13.6406 46.7808H11.6406V41.5508ZM13.6406 42.3911H12.9006V45.9312H13.6506C14.5606 45.9312 15.0206 45.3411 15.0206 44.1611C15.0623 43.6582 14.9123 43.1577 14.6006 42.7607C14.4719 42.6316 14.3168 42.5321 14.1459 42.4683C13.9751 42.4044 13.7925 42.3781 13.6106 42.3911H13.6406Z" fill="white"/>
<path d="M18.22 42.5107H17V41.5107H18.22V42.5107ZM18.22 46.7808H17.09V43.001H18.22V46.7808Z" fill="white"/>
<path d="M20.7001 46.1209C21.1201 46.1209 21.3301 46.0006 21.3301 45.7606C21.3362 45.7108 21.3258 45.6608 21.3005 45.6175C21.2752 45.5742 21.2364 45.5401 21.1901 45.5208C20.9445 45.4207 20.69 45.3437 20.4301 45.2908C20.0726 45.2227 19.7325 45.0831 19.4301 44.8807C19.3119 44.7824 19.2179 44.6584 19.1555 44.5179C19.093 44.3774 19.0638 44.2242 19.0701 44.0706C19.0638 43.893 19.105 43.7173 19.1893 43.5609C19.2737 43.4044 19.3982 43.2733 19.5501 43.181C19.9094 42.9688 20.3235 42.8678 20.7401 42.8909C21.1807 42.8676 21.6167 42.9908 21.9801 43.241C22.2447 43.4367 22.4238 43.7264 22.4801 44.0506H21.3401C21.2801 43.7906 21.0701 43.661 20.7101 43.661C20.3701 43.661 20.2001 43.771 20.2001 43.971C20.198 44.0215 20.2111 44.0712 20.2379 44.1141C20.2647 44.1569 20.3038 44.1906 20.3502 44.2108C20.5532 44.3089 20.7684 44.3794 20.9901 44.4207H21.1301C21.4541 44.4962 21.7668 44.614 22.0601 44.7708C22.1971 44.8557 22.3091 44.9752 22.3846 45.1175C22.4602 45.2598 22.4966 45.4199 22.4901 45.5809C22.5038 45.776 22.4657 45.9712 22.3796 46.1468C22.2936 46.3224 22.1626 46.4721 22.0001 46.5809C21.6135 46.8084 21.1681 46.9164 20.7202 46.8909C20.2547 46.915 19.7943 46.7848 19.4102 46.5208C19.1432 46.3273 18.9635 46.0361 18.9102 45.7108H20.0501C20.0639 45.7733 20.0906 45.8324 20.1285 45.8841C20.1664 45.9358 20.2146 45.9786 20.2701 46.0106C20.4016 46.0838 20.5497 46.122 20.7001 46.1209Z" fill="white"/>
<path d="M25.4412 46.021V46.791C25.2171 46.8571 24.9848 46.8908 24.7512 46.8911C24.5794 46.904 24.4068 46.8804 24.2448 46.8218C24.0827 46.7632 23.9349 46.6706 23.8112 46.5508C23.6099 46.3265 23.5057 46.0319 23.5212 45.731V43.751H22.9512V42.9609H23.5112L23.5812 42.0508H24.6512V42.9609H25.4211V43.751H24.6512V45.751C24.6488 45.795 24.6556 45.8391 24.6711 45.8804C24.6866 45.9217 24.7104 45.9596 24.7411 45.9912C24.8237 46.0468 24.9217 46.0744 25.0212 46.0708C25.1625 46.0683 25.3032 46.0518 25.4412 46.021Z" fill="white"/>
<path d="M27.2218 46.7505H26.0918V42.9708H27.0318L27.1618 43.5406C27.2314 43.3336 27.3668 43.1551 27.5474 43.0323C27.7279 42.9095 27.9437 42.849 28.1618 42.8604C28.3046 42.8421 28.449 42.8421 28.5918 42.8604V43.9205C28.4372 43.868 28.275 43.8409 28.1118 43.8404C27.9826 43.8434 27.8563 43.8792 27.7444 43.9439C27.6326 44.0086 27.5389 44.1001 27.4718 44.2105C27.3089 44.4889 27.2291 44.8081 27.2418 45.1304L27.2218 46.7505Z" fill="white"/>
<path d="M30.2903 42.5107H29.0703V41.5107H30.2903V42.5107ZM30.2903 46.7808H29.1103V43.001H30.2503L30.2903 46.7808Z" fill="white"/>
<path d="M32.0717 46.7505H31.1816V41.5205H32.3217V43.3306C32.4683 43.1769 32.6455 43.0556 32.8419 42.9746C33.0382 42.8937 33.2494 42.8547 33.4617 42.8604C33.7011 42.8471 33.9404 42.8882 34.162 42.98C34.3835 43.0717 34.5816 43.212 34.7416 43.3906C35.0319 43.7746 35.1739 44.2502 35.1417 44.7305C35.1625 45.0297 35.1228 45.3303 35.0248 45.6138C34.9269 45.8973 34.7727 46.1578 34.5717 46.3804C34.4134 46.5387 34.2244 46.6631 34.0163 46.7456C33.8082 46.8282 33.5854 46.8672 33.3616 46.8604C33.1511 46.8645 32.9423 46.8218 32.7504 46.7354C32.5584 46.6489 32.388 46.5208 32.2516 46.3604L32.0717 46.7505ZM34.0016 44.8306C34.0016 44.0706 33.7217 43.6904 33.1617 43.6904C33.0345 43.6826 32.9074 43.7071 32.7921 43.7612C32.6767 43.8154 32.5769 43.8976 32.5016 44.0005C32.3407 44.2424 32.2635 44.5303 32.2817 44.8203C32.2817 45.6303 32.5616 46.0303 33.1216 46.0303C33.2508 46.0368 33.3794 46.01 33.4951 45.9521C33.6107 45.8943 33.7094 45.8079 33.7817 45.7007C33.9379 45.4492 34.0146 45.1561 34.0016 44.8604V44.8306Z" fill="white"/>
<path d="M35.9002 43.001H37.0302V45.501C37.0219 45.5823 37.0321 45.6645 37.0601 45.7412C37.0881 45.818 37.1332 45.887 37.1919 45.9438C37.2507 46.0007 37.3215 46.0434 37.3991 46.0688C37.4768 46.0943 37.5592 46.1018 37.6402 46.0908C37.7396 46.0947 37.8386 46.0754 37.929 46.0337C38.0194 45.992 38.0986 45.9293 38.1602 45.8511C38.2863 45.6848 38.35 45.4795 38.3402 45.271V43.001H39.5102V46.751H38.5102L38.4002 46.3511C38.2642 46.5203 38.0898 46.655 37.8916 46.7437C37.6934 46.8323 37.477 46.8723 37.2602 46.8608C37.0634 46.8738 36.8662 46.8431 36.6829 46.7705C36.4996 46.6979 36.3347 46.5851 36.2002 46.4409C35.9789 46.1558 35.8655 45.8016 35.8802 45.4409L35.9002 43.001Z" fill="white"/>
<path d="M42.5701 46.021V46.791C42.3462 46.8578 42.1137 46.8915 41.8801 46.8911C41.7083 46.9034 41.5359 46.8794 41.374 46.8208C41.212 46.7622 41.0642 46.6701 40.9401 46.5508C40.7388 46.3265 40.6346 46.0319 40.6501 45.731V43.751H40.0801V42.9609H40.6501L40.73 42.0508H41.7901V42.9609H42.5701V43.751H41.7901V45.751C41.7877 45.7959 41.7954 45.8408 41.8127 45.8823C41.8301 45.9239 41.8565 45.9613 41.8901 45.9912C41.9678 46.0489 42.0635 46.0768 42.1601 46.0708C42.2981 46.0676 42.4354 46.0511 42.5701 46.021Z" fill="white"/>
<path d="M43.0412 44.8815C43.0229 44.596 43.0661 44.3101 43.1679 44.0427C43.2697 43.7753 43.4277 43.5328 43.6311 43.3317C44.0328 43.02 44.5335 42.8638 45.0412 42.8918C45.3243 42.8737 45.6081 42.9158 45.8736 43.0158C46.1391 43.1158 46.3803 43.2715 46.5812 43.4719C46.9042 43.8684 47.0682 44.3707 47.0412 44.8815C47.0596 45.1694 47.0155 45.458 46.9119 45.7272C46.8083 45.9965 46.6478 46.2402 46.4411 46.4416C46.0486 46.7639 45.5481 46.925 45.0412 46.8918C44.7597 46.9084 44.4778 46.8653 44.2142 46.7653C43.9505 46.6654 43.7109 46.5108 43.5112 46.3117C43.1823 45.91 43.0148 45.4 43.0412 44.8815ZM44.2112 44.8815C44.1772 45.2337 44.2654 45.5868 44.4612 45.8815C44.5325 45.9645 44.6218 46.0301 44.7223 46.0734C44.8228 46.1167 44.9319 46.1367 45.0412 46.1315C45.1684 46.1426 45.2962 46.1186 45.4108 46.0622C45.5253 46.0058 45.6223 45.9193 45.6911 45.8117C45.8304 45.5224 45.8924 45.2019 45.8711 44.8815C45.9057 44.5307 45.8211 44.1785 45.6312 43.8815C45.5555 43.8025 45.4635 43.7411 45.3616 43.7013C45.2597 43.6616 45.1504 43.6445 45.0412 43.6515C44.9126 43.6408 44.7835 43.6651 44.6673 43.7214C44.5512 43.7777 44.4524 43.8643 44.3812 43.9719C44.2495 44.2563 44.1911 44.5688 44.2112 44.8815Z" fill="white"/>
<path d="M48.9601 46.7505H47.8301V42.9708H48.7701L48.9001 43.5406C48.9697 43.3336 49.1051 43.1551 49.2856 43.0323C49.4662 42.9095 49.682 42.849 49.9001 42.8604C50.0428 42.8421 50.1873 42.8421 50.3301 42.8604V43.9205C50.1755 43.868 50.0134 43.8409 49.8501 43.8404C49.7209 43.8434 49.5946 43.8792 49.4828 43.9439C49.3709 44.0086 49.2772 44.1001 49.2101 44.2105C49.0472 44.4889 48.9673 44.8081 48.98 45.1304L48.9601 46.7505Z" fill="white"/>
<path d="M24.1191 29.1318H22.3789V36.0918H24.1191V29.1318Z" fill="white"/>
<path d="M32.8894 32.6004C32.8795 33.0831 32.9685 33.5629 33.1508 34.0101C33.3331 34.4572 33.605 34.8619 33.9497 35.2C34.2944 35.5381 34.7046 35.8022 35.1551 35.9759C35.6056 36.1496 36.0869 36.2294 36.5694 36.2102C37.1054 36.2038 37.6376 36.1196 38.1494 35.9602V34.0901C37.7012 34.3332 37.1993 34.4605 36.6894 34.4602C36.4392 34.4742 36.1888 34.4363 35.9541 34.3484C35.7193 34.2606 35.5054 34.1249 35.3259 33.95C35.1463 33.7751 35.005 33.5646 34.911 33.3323C34.8169 33.1 34.7721 32.8509 34.7794 32.6004C34.7766 32.3511 34.8243 32.1036 34.9199 31.8733C35.0156 31.6431 35.157 31.4345 35.3356 31.2605C35.5142 31.0866 35.7263 30.9511 35.9591 30.8616C36.1918 30.7722 36.4403 30.731 36.6894 30.7405C37.201 30.7371 37.7045 30.868 38.1494 31.1204V29.2503C37.6389 29.0856 37.1059 29.0013 36.5694 29.0003C36.0874 28.9797 35.6063 29.0582 35.1558 29.2308C34.7054 29.4033 34.295 29.6664 33.9502 30.0037C33.6053 30.3411 33.3333 30.7456 33.1508 31.1922C32.9684 31.6388 32.8794 32.1181 32.8894 32.6004Z" fill="white"/>
<path d="M14.7297 32.6004C14.7184 33.0827 14.806 33.562 14.9873 34.0091C15.1685 34.4562 15.4394 34.8612 15.7833 35.1995C16.1272 35.5378 16.5368 35.8021 16.9868 35.9759C17.4368 36.1497 17.9177 36.2295 18.3997 36.2103C18.939 36.2045 19.4746 36.1203 19.9897 35.9603V34.0902C19.5376 34.3325 19.0327 34.4597 18.5197 34.4603C18.2703 34.4728 18.0209 34.4335 17.7874 34.345C17.5539 34.2565 17.3412 34.1208 17.1628 33.9461C16.9843 33.7714 16.844 33.5615 16.7505 33.3299C16.657 33.0983 16.6125 32.85 16.6197 32.6004C16.6183 32.3537 16.6665 32.1089 16.7615 31.8812C16.8565 31.6534 16.9963 31.4473 17.1726 31.2747C17.3489 31.1021 17.5581 30.9669 17.7878 30.8768C18.0176 30.7867 18.2631 30.7436 18.5097 30.7503C19.0242 30.7488 19.5304 30.8796 19.9797 31.1302V29.2601C19.4656 29.096 18.9294 29.0117 18.3897 29.0101C17.9082 28.9894 17.4275 29.0679 16.9775 29.2405C16.5276 29.4132 16.1179 29.6765 15.7738 30.014C15.4297 30.3515 15.1586 30.7564 14.9773 31.2029C14.796 31.6495 14.7083 32.1283 14.7197 32.6102L14.7297 32.6004Z" fill="white"/>
<path d="M43.6308 28.9999C42.9176 29.0059 42.2223 29.2228 41.6323 29.6235C41.0424 30.0242 40.5845 30.5907 40.3161 31.2514C40.0478 31.9121 39.9811 32.6373 40.1246 33.3359C40.2681 34.0344 40.6152 34.6752 41.1223 35.1767C41.6293 35.6782 42.2735 36.018 42.9736 36.1537C43.6737 36.2895 44.3983 36.215 45.056 35.9394C45.7138 35.6638 46.2751 35.1992 46.6693 34.6049C47.0634 34.0106 47.2727 33.3132 47.2708 32.6C47.2763 32.1224 47.1855 31.6484 47.004 31.2065C46.8226 30.7646 46.554 30.3637 46.2144 30.0278C45.8747 29.6918 45.4709 29.428 45.0271 29.2514C44.5832 29.0748 44.1083 28.9892 43.6308 28.9999ZM43.6308 34.4301C43.2676 34.4361 42.9109 34.3336 42.606 34.1362C42.3012 33.9387 42.062 33.655 41.9188 33.3212C41.7757 32.9874 41.7351 32.6186 41.8023 32.2616C41.8695 31.9047 42.0414 31.5758 42.2961 31.3168C42.5508 31.0579 42.8768 30.8806 43.2326 30.8075C43.5883 30.7345 43.9578 30.7691 44.294 30.9067C44.6301 31.0442 44.9177 31.2784 45.1201 31.58C45.3226 31.8816 45.4307 32.2368 45.4307 32.6C45.4375 32.8396 45.3958 33.0781 45.3081 33.3012C45.2204 33.5243 45.0886 33.7275 44.9205 33.8984C44.7524 34.0693 44.5515 34.2045 44.3299 34.2958C44.1082 34.3872 43.8705 34.4329 43.6308 34.4301Z" fill="white"/>
<path d="M29.5592 31.8809L29.0792 31.731C28.7892 31.631 28.2792 31.491 28.2792 31.061C28.2792 30.631 28.6592 30.4912 29.3592 30.4912C29.8186 30.5136 30.2745 30.5839 30.7192 30.7012V29.2212C30.1636 29.0792 29.5927 29.0051 29.0192 29.001C27.4192 29.001 26.4492 29.8709 26.4492 31.1709C26.4742 31.657 26.6642 32.1203 26.9878 32.4839C27.3114 32.8475 27.7493 33.0897 28.2292 33.1709L28.5992 33.291C29.0292 33.431 29.3792 33.631 29.3792 33.981C29.3792 34.331 28.9792 34.6309 28.1092 34.6309C27.5535 34.6165 27.0021 34.5293 26.4692 34.3711V35.981C27.0895 36.0969 27.7184 36.1604 28.3492 36.1709C29.6792 36.1709 31.1992 35.5811 31.1992 33.8311C31.1918 33.3615 31.0257 32.9081 30.7279 32.5449C30.4301 32.1818 30.0182 31.9303 29.5592 31.8311V31.8809Z" fill="white"/>
<path d="M12.0195 20.751C11.7888 20.751 11.5675 20.8427 11.4044 21.0059C11.2412 21.169 11.1495 21.3904 11.1495 21.6211V23.4512C11.1365 23.5726 11.1491 23.6953 11.1866 23.8115C11.2241 23.9277 11.2857 24.0346 11.3672 24.1255C11.4488 24.2163 11.5486 24.2891 11.6602 24.3389C11.7717 24.3886 11.8924 24.4141 12.0145 24.4141C12.1366 24.4141 12.2574 24.3886 12.3689 24.3389C12.4804 24.2891 12.5802 24.2163 12.6618 24.1255C12.7434 24.0346 12.805 23.9277 12.8425 23.8115C12.88 23.6953 12.8926 23.5726 12.8795 23.4512V21.6211C12.8795 21.3921 12.7892 21.1721 12.6282 21.0093C12.4672 20.8464 12.2485 20.7536 12.0195 20.751Z" fill="white"/>
<path d="M16.7595 24.3413C16.9903 24.3413 17.2115 24.2496 17.3747 24.0864C17.5379 23.9233 17.6295 23.7024 17.6295 23.4717V19.2417C17.6426 19.1203 17.63 18.9971 17.5925 18.8809C17.555 18.7647 17.4934 18.6577 17.4118 18.5669C17.3302 18.476 17.2304 18.4037 17.1189 18.354C17.0074 18.3043 16.8866 18.2783 16.7645 18.2783C16.6424 18.2783 16.5217 18.3043 16.4102 18.354C16.2986 18.4037 16.1988 18.476 16.1172 18.5669C16.0357 18.6577 15.9741 18.7647 15.9366 18.8809C15.8991 18.9971 15.8865 19.1203 15.8995 19.2417V23.4717C15.8995 23.7007 15.9898 23.9201 16.1508 24.083C16.3118 24.2459 16.5305 24.3387 16.7595 24.3413Z" fill="white"/>
<path d="M21.5098 15.0908C21.279 15.0908 21.0577 15.1825 20.8946 15.3457C20.7314 15.5089 20.6398 15.7302 20.6398 15.9609V25.2012C20.6267 25.3226 20.6393 25.4453 20.6768 25.5615C20.7143 25.6777 20.7759 25.7846 20.8575 25.8755C20.9391 25.9663 21.0389 26.0391 21.1504 26.0889C21.2619 26.1386 21.3827 26.1641 21.5048 26.1641C21.6269 26.1641 21.7476 26.1386 21.8591 26.0889C21.9706 26.0391 22.0704 25.9663 22.152 25.8755C22.2336 25.7846 22.2952 25.6777 22.3327 25.5615C22.3702 25.4453 22.3828 25.3226 22.3697 25.2012V15.9609C22.3698 15.7319 22.2795 15.512 22.1185 15.3491C21.9575 15.1862 21.7388 15.0935 21.5098 15.0908Z" fill="white"/>
<path d="M27.1197 23.4717V19.2417C27.1328 19.1203 27.1202 18.9971 27.0827 18.8809C27.0452 18.7647 26.9836 18.6577 26.902 18.5669C26.8204 18.476 26.7206 18.4037 26.6091 18.354C26.4976 18.3043 26.3769 18.2783 26.2548 18.2783C26.1327 18.2783 26.0119 18.3043 25.9004 18.354C25.7889 18.4037 25.6891 18.476 25.6075 18.5669C25.5259 18.6577 25.4643 18.7647 25.4268 18.8809C25.3893 18.9971 25.3767 19.1203 25.3898 19.2417V23.4717C25.3767 23.5931 25.3893 23.7158 25.4268 23.832C25.4643 23.9482 25.5259 24.0551 25.6075 24.146C25.6891 24.2368 25.7889 24.3096 25.9004 24.3594C26.0119 24.4091 26.1327 24.4346 26.2548 24.4346C26.3769 24.4346 26.4976 24.4091 26.6091 24.3594C26.7206 24.3096 26.8204 24.2368 26.902 24.146C26.9836 24.0551 27.0452 23.9482 27.0827 23.832C27.1202 23.7158 27.1328 23.5931 27.1197 23.4717Z" fill="white"/>
<path d="M31.0007 20.751C30.8869 20.751 30.7742 20.7735 30.6692 20.8174C30.5643 20.8612 30.469 20.9254 30.389 21.0063C30.309 21.0873 30.2459 21.1831 30.2032 21.2886C30.1606 21.3941 30.1394 21.5073 30.1407 21.6211V23.4512C30.1407 23.6793 30.2313 23.8978 30.3926 24.0591C30.5539 24.2204 30.7726 24.311 31.0007 24.311C31.2288 24.311 31.4475 24.2204 31.6088 24.0591C31.77 23.8978 31.8607 23.6793 31.8607 23.4512V21.6211C31.8607 21.3921 31.7704 21.1721 31.6094 21.0093C31.4484 20.8464 31.2297 20.7536 31.0007 20.751Z" fill="white"/>
<path d="M35.7507 24.3418C35.9797 24.3392 36.1984 24.2464 36.3594 24.0835C36.5204 23.9206 36.6107 23.7012 36.6107 23.4722V19.2422C36.6107 19.0141 36.52 18.7951 36.3588 18.6338C36.1975 18.4725 35.9788 18.3818 35.7507 18.3818C35.5226 18.3818 35.3039 18.4725 35.1426 18.6338C34.9813 18.7951 34.8907 19.0141 34.8907 19.2422V23.4722C34.8894 23.5859 34.9106 23.6987 34.9532 23.8042C34.9959 23.9097 35.059 24.0055 35.139 24.0864C35.219 24.1673 35.3143 24.2315 35.4192 24.2754C35.5242 24.3192 35.6369 24.3418 35.7507 24.3418Z" fill="white"/>
<path d="M41.36 25.2021V15.9619C41.3731 15.8405 41.3604 15.7178 41.3229 15.6016C41.2854 15.4854 41.2239 15.3784 41.1423 15.2876C41.0607 15.1968 40.9609 15.124 40.8494 15.0742C40.7378 15.0245 40.6171 14.999 40.495 14.999C40.3729 14.999 40.2521 15.0245 40.1406 15.0742C40.0291 15.124 39.9293 15.1968 39.8477 15.2876C39.7661 15.3784 39.7046 15.4854 39.6671 15.6016C39.6295 15.7178 39.6169 15.8405 39.63 15.9619V25.2021C39.6169 25.3236 39.6295 25.4463 39.6671 25.5625C39.7046 25.6787 39.7661 25.7856 39.8477 25.8765C39.9293 25.9673 40.0291 26.0401 40.1406 26.0898C40.2521 26.1396 40.3729 26.165 40.495 26.165C40.6171 26.165 40.7378 26.1396 40.8494 26.0898C40.9609 26.0401 41.0607 25.9673 41.1423 25.8765C41.2239 25.7856 41.2854 25.6787 41.3229 25.5625C41.3604 25.4463 41.3731 25.3236 41.36 25.2021Z" fill="white"/>
<path d="M45.2302 24.3413C45.3448 24.3426 45.4586 24.3211 45.5647 24.2778C45.6709 24.2346 45.7674 24.1709 45.8484 24.0898C45.9295 24.0088 45.9935 23.9123 46.0367 23.8062C46.08 23.7 46.1016 23.5863 46.1003 23.4717V19.2417C46.1133 19.1203 46.1007 18.9971 46.0632 18.8809C46.0256 18.7647 45.9641 18.6577 45.8825 18.5669C45.8009 18.476 45.7011 18.4037 45.5896 18.354C45.4781 18.3043 45.3573 18.2783 45.2352 18.2783C45.1131 18.2783 44.9924 18.3043 44.8808 18.354C44.7693 18.4037 44.6695 18.476 44.5879 18.5669C44.5064 18.6577 44.4448 18.7647 44.4073 18.8809C44.3698 18.9971 44.3572 19.1203 44.3702 19.2417V23.4717C44.3702 23.7007 44.4605 23.9201 44.6215 24.083C44.7825 24.2459 45.0012 24.3387 45.2302 24.3413Z" fill="white"/>
<path d="M49.9791 20.751C49.7501 20.7536 49.5314 20.8464 49.3704 21.0093C49.2094 21.1721 49.1191 21.3921 49.1191 21.6211V23.4512C49.1191 23.5641 49.1414 23.6759 49.1846 23.7803C49.2279 23.8846 49.2912 23.9792 49.371 24.0591C49.4509 24.1389 49.5457 24.2024 49.65 24.2456C49.7544 24.2888 49.8662 24.311 49.9791 24.311C50.0921 24.311 50.2039 24.2888 50.3083 24.2456C50.4126 24.2024 50.5074 24.1389 50.5873 24.0591C50.6671 23.9792 50.7305 23.8846 50.7737 23.7803C50.8169 23.6759 50.8392 23.5641 50.8392 23.4512V21.6211C50.8405 21.5073 50.8192 21.3941 50.7766 21.2886C50.734 21.1831 50.6708 21.0873 50.5908 21.0063C50.5108 20.9254 50.4156 20.8612 50.3106 20.8174C50.2056 20.7735 50.0929 20.751 49.9791 20.751Z" fill="white"/>
<defs>
<linearGradient id="paint0_linear_1007_14308" x1="1.25945" y1="1.26043" x2="60.7293" y2="60.7205" gradientUnits="userSpaceOnUse">
<stop stop-color="#1869FF"/>
<stop offset="0.31" stop-color="#02C8FF"/>
<stop offset="0.41" stop-color="#04C6FD"/>
<stop offset="0.46" stop-color="#0CBFF9"/>
<stop offset="0.5" stop-color="#19B4F3"/>
<stop offset="0.53" stop-color="#26ABED"/>
<stop offset="0.56" stop-color="#2BA6EA"/>
<stop offset="0.61" stop-color="#3A9AE2"/>
<stop offset="0.66" stop-color="#5486D5"/>
<stop offset="0.71" stop-color="#776AC3"/>
<stop offset="0.76" stop-color="#A446AC"/>
<stop offset="0.82" stop-color="#DB1B90"/>
<stop offset="0.85" stop-color="#FF007F"/>
<stop offset="0.91" stop-color="#FF3F46"/>
<stop offset="0.97" stop-color="#FF7913"/>
<stop offset="1" stop-color="#FF9000"/>
</linearGradient>
</defs>
</svg>
