<svg width="96" height="46" viewBox="0 0 96 46" fill="none" xmlns="http://www.w3.org/2000/svg">
<path d="M95.41 35.8501C91.54 22.7601 87.55 10.92 83.53 0H77.01C73.74 9.1 70.47 17.6301 67.19 25.8101C63.6 25.4901 60 25.2498 56.41 25.0898L56.32 1.91992C56.3174 1.80762 56.2709 1.70105 56.1906 1.62256C56.1102 1.54407 56.0023 1.49997 55.89 1.5H50.6C50.4886 1.5 50.3818 1.54428 50.303 1.62305C50.2243 1.70181 50.18 1.80853 50.18 1.91992V24.52C46.84 16.86 43.55 9.25002 40.28 1.52002H33.76C30.56 9.29002 27.34 17.29 24.11 25.71C24.1767 17.45 24.2433 9.18659 24.31 0.919922C24.3113 0.863931 24.3015 0.808464 24.2809 0.756348C24.2604 0.704231 24.2297 0.656765 24.1906 0.616699C24.1515 0.576633 24.1047 0.544679 24.0531 0.522949C24.0015 0.50122 23.946 0.490218 23.89 0.490234H18.6C18.4886 0.490234 18.3818 0.534516 18.303 0.613281C18.2243 0.692047 18.18 0.798765 18.18 0.910156L18.09 13.25C14.09 13.57 10.09 13.9435 6.09 14.3701C6.09 9.89012 6.10668 5.40659 6.14001 0.919922C6.14135 0.863931 6.13147 0.808464 6.11096 0.756348C6.09045 0.704231 6.05973 0.656765 6.0206 0.616699C5.98147 0.576633 5.93471 0.544679 5.88309 0.522949C5.83147 0.50122 5.77601 0.490218 5.72 0.490234H0.420013C0.308623 0.490234 0.201782 0.534516 0.123016 0.613281C0.0442511 0.692047 0 0.798765 0 0.910156V36.6299C0.000179466 36.7301 0.0238827 36.8291 0.0692139 36.9185C0.114545 37.0078 0.180236 37.0852 0.260986 37.1445C0.341737 37.2039 0.435317 37.2437 0.534149 37.2603C0.632981 37.2768 0.734322 37.27 0.830017 37.2402C2.40335 36.7736 3.97334 36.3235 5.54001 35.8901C5.67558 35.8528 5.79508 35.7717 5.88004 35.6597C5.96499 35.5476 6.01067 35.4106 6.01001 35.27C6.01001 30.29 6.02666 25.3132 6.06 20.3398C10.06 19.7332 14.06 19.1966 18.06 18.73C18.06 23.19 18.0267 27.6499 17.96 32.1099C17.9592 32.2063 17.9801 32.302 18.0213 32.3892C18.0625 32.4763 18.1229 32.5527 18.1979 32.6133C18.2729 32.6739 18.3606 32.7168 18.4545 32.7388C18.5483 32.7607 18.6459 32.7613 18.74 32.7402C19.98 32.4902 26.14 31.5699 27.84 31.3599C27.958 31.3442 28.0696 31.2971 28.1629 31.2231C28.2562 31.1492 28.3277 31.0512 28.37 30.9399C29.18 28.7099 30 26.5098 30.81 24.3398C34.8967 23.9865 38.9934 23.7432 43.1 23.6099C43.9334 25.6099 44.7667 27.6099 45.6 29.6099C45.6498 29.7314 45.7364 29.8344 45.8475 29.9043C45.9587 29.9742 46.0889 30.0077 46.22 30C47.99 29.95 64.71 30.5001 71.09 31.3301C71.2254 31.3503 71.3635 31.3218 71.48 31.25C71.6143 31.254 71.7466 31.2155 71.8578 31.1401C71.9691 31.0647 72.0539 30.9563 72.1 30.8301C72.86 28.7701 73.62 26.6998 74.38 24.5898C78.44 25.1832 82.4833 25.8735 86.51 26.6602C87.37 29.3268 88.2233 32.0403 89.07 34.8003C89.104 34.9045 89.1627 34.9986 89.241 35.0752C89.3194 35.1518 89.4151 35.2086 89.52 35.2402C91.21 35.6902 92.89 36.1802 94.52 36.6802C94.6385 36.739 94.772 36.7603 94.9029 36.7412C95.0338 36.7221 95.1557 36.6634 95.2524 36.5732C95.3492 36.483 95.4161 36.3655 95.4442 36.2363C95.4724 36.1071 95.4605 35.9724 95.41 35.8501ZM32.76 19.23C34.1733 15.5166 35.5767 11.85 36.97 8.22998C38.3567 11.7766 39.75 15.3003 41.15 18.8003C38.32 18.9403 35.56 19.06 32.76 19.23ZM76.24 19.4199C77.59 15.6099 78.93 11.7099 80.24 7.68994C81.66 11.8499 83.0833 16.1267 84.51 20.52C81.78 20.12 79.02 19.7499 76.24 19.4199Z" fill="white"/>
<path d="M47.5409 31.8315L49.2109 36.9414C49.2166 36.9555 49.2262 36.9677 49.2386 36.9766C49.251 36.9854 49.2657 36.9909 49.2809 36.9917H54.6709C54.6868 36.9917 54.7021 36.998 54.7134 37.0093C54.7246 37.0205 54.7309 37.0358 54.7309 37.0518C54.7309 37.0677 54.7246 37.0825 54.7134 37.0938C54.7021 37.105 54.6868 37.1113 54.6709 37.1113L50.3109 40.2715C50.3018 40.2808 50.2966 40.2936 50.2966 40.3066C50.2966 40.3197 50.3018 40.332 50.3109 40.3413L51.9809 45.4517C51.9809 45.5117 51.9809 45.5717 51.8809 45.5317L47.5109 42.3716C47.4999 42.3617 47.4857 42.3564 47.4709 42.3564C47.4562 42.3564 47.4419 42.3617 47.4309 42.3716L43.0609 45.5317C43.0609 45.5317 42.9409 45.5317 42.9609 45.4517L44.6309 40.3413C44.6401 40.332 44.6452 40.3197 44.6452 40.3066C44.6452 40.2936 44.6401 40.2808 44.6309 40.2715L40.2709 37.1113C40.255 37.1113 40.2398 37.105 40.2285 37.0938C40.2173 37.0825 40.2109 37.0677 40.2109 37.0518C40.2109 37.0358 40.2173 37.0205 40.2285 37.0093C40.2398 36.998 40.255 36.9917 40.2709 36.9917H45.6609C45.6762 36.9909 45.6908 36.9854 45.7032 36.9766C45.7156 36.9677 45.7252 36.9555 45.7309 36.9414L47.4009 31.8315C47.4009 31.813 47.4083 31.7954 47.4214 31.7822C47.4346 31.7691 47.4524 31.7617 47.4709 31.7617C47.4895 31.7617 47.5073 31.7691 47.5204 31.7822C47.5336 31.7954 47.5409 31.813 47.5409 31.8315Z" fill="url(#paint0_linear_1007_14302)"/>
<path d="M39.4008 39.38C29.8083 40.345 20.1432 40.345 10.5508 39.38C20.1432 38.415 29.8083 38.415 39.4008 39.38Z" fill="white"/>
<path d="M83.3205 39.3801C73.7314 40.3452 64.0696 40.3452 54.4805 39.3801C64.0696 38.415 73.7314 38.415 83.3205 39.3801Z" fill="white"/>
<defs>
<linearGradient id="paint0_linear_1007_14302" x1="44.6709" y1="43.3617" x2="51.5809" y2="33.3017" gradientUnits="userSpaceOnUse">
<stop stop-color="#E37500"/>
<stop offset="1" stop-color="#FCF42E"/>
</linearGradient>
</defs>
</svg>
