<svg width="58" height="43" viewBox="0 0 58 43" fill="none" xmlns="http://www.w3.org/2000/svg">
<path d="M53.31 2.1132L29.88 23.393C29.6099 23.6246 29.2659 23.7519 28.91 23.7519C28.5542 23.7519 28.2101 23.6246 27.94 23.393L4.48999 2.07316C4.30411 1.8979 4.17903 1.66771 4.13293 1.41643C4.08684 1.16514 4.12213 0.905535 4.2337 0.675703C4.34527 0.445871 4.52728 0.257817 4.75323 0.138594C4.97919 0.019371 5.2373 -0.0245283 5.48999 0.0131056H52.37C52.6264 -0.021024 52.887 0.0287021 53.1129 0.154707C53.3388 0.280712 53.5179 0.476228 53.6236 0.712324C53.7293 0.94842 53.7559 1.21235 53.6993 1.46477C53.6428 1.71719 53.5063 1.94471 53.31 2.1132ZM0 36.393V5.13322C0.0312281 4.87614 0.133145 4.63272 0.294434 4.4301C0.455722 4.22748 0.67007 4.07336 0.913605 3.98527C1.15714 3.89719 1.42033 3.87852 1.67392 3.93107C1.92751 3.98363 2.16151 4.1055 2.34998 4.28312L27.7 27.2831C27.9348 27.5015 28.2255 27.6501 28.54 27.7128C28.8055 27.7669 29.0799 27.7592 29.3418 27.6899C29.6037 27.6205 29.8461 27.4913 30.05 27.3129L55.43 4.24309C55.6196 4.06627 55.8543 3.94511 56.1082 3.89299C56.3622 3.84087 56.6256 3.85983 56.8695 3.94768C57.1134 4.03552 57.3284 4.18896 57.4908 4.39104C57.6532 4.59311 57.7567 4.83609 57.79 5.09318V36.393C57.79 39.523 54.92 42.0629 51.39 42.0629H6.39001C2.88001 42.0629 0 39.523 0 36.393Z" fill="url(#paint0_linear_1181_1267)"/>
<defs>
<linearGradient id="paint0_linear_1181_1267" x1="0" y1="21.053" x2="57.79" y2="21.053" gradientUnits="userSpaceOnUse">
<stop stop-color="#5B38AD"/>
<stop offset="1" stop-color="#9333CD"/>
</linearGradient>
</defs>
</svg>
