<svg width="54" height="54" viewBox="0 0 54 54" fill="none" xmlns="http://www.w3.org/2000/svg">
<path d="M42.7476 53.6201C38.8376 53.6201 34.2176 52.3003 29.3676 49.8203C23.9554 46.958 19.0145 43.2814 14.7176 38.9199C8.71763 32.9199 4.08763 26.0203 1.71763 19.5103C-0.552368 13.2703 -0.572366 7.94026 1.65763 4.51026C2.12511 3.79281 2.76902 3.20725 3.52764 2.81007L8.52764 0.16993C8.74779 0.0586126 8.99094 0.000469974 9.23764 8.26935e-06C9.46267 -0.00073393 9.68509 0.0484951 9.88906 0.143563C10.093 0.238631 10.2735 0.37749 10.4176 0.550301L18.2176 9.97999C18.4643 10.2718 18.592 10.6461 18.5753 11.0278C18.5587 11.4096 18.3988 11.7709 18.1276 12.04L15.1276 15.04C14.6446 15.5208 14.3212 16.1387 14.2013 16.8096C14.0814 17.4805 14.1709 18.1718 14.4576 18.79C18.9751 27.5074 26.0803 34.6124 34.7976 39.1299C35.4152 39.4245 36.1092 39.5197 36.7831 39.4014C37.4571 39.2831 38.0774 38.9576 38.5576 38.4702L41.5576 35.4702C41.6992 35.3285 41.8676 35.2162 42.0531 35.1406C42.2386 35.0651 42.4374 35.0278 42.6376 35.0303C43.002 35.0241 43.3566 35.1479 43.6376 35.3799L53.0676 43.1802C53.3351 43.406 53.5182 43.7159 53.5872 44.0591C53.6562 44.4023 53.607 44.7587 53.4476 45.0703L50.8076 50.0703C50.4096 50.8311 49.8246 51.4779 49.1076 51.9502C47.1942 53.1113 44.9847 53.6914 42.7476 53.6201Z" fill="url(#paint0_linear_1181_1263)"/>
<defs>
<linearGradient id="paint0_linear_1181_1263" x1="0.00763333" y1="26.8001" x2="53.6276" y2="26.8001" gradientUnits="userSpaceOnUse">
<stop stop-color="#5B38AD"/>
<stop offset="1" stop-color="#9333CD"/>
</linearGradient>
</defs>
</svg>
