<svg width="69" height="103" viewBox="0 0 69 103" fill="none" xmlns="http://www.w3.org/2000/svg">
<path d="M23.3324 68.8695C16.6477 69.5095 9.91714 69.5095 3.23242 68.8695C9.9169 68.2245 16.648 68.2245 23.3324 68.8695Z" fill="#111149"/>
<path d="M68.0412 68.8199C61.193 69.4649 54.2994 69.4649 47.4512 68.8199C54.2996 68.1798 61.1928 68.1798 68.0412 68.8199Z" fill="#111149"/>
<path d="M36.0213 57.8696L38.6113 65.8696C38.6307 65.9311 38.6693 65.9848 38.7215 66.0226C38.7738 66.0605 38.8368 66.0805 38.9013 66.0796H47.3313C47.3963 66.0803 47.4596 66.1015 47.5119 66.1401C47.5643 66.1787 47.6032 66.2328 47.6231 66.2947C47.6431 66.3567 47.643 66.4233 47.6229 66.4852C47.6028 66.5471 47.5638 66.6012 47.5113 66.6396L40.7313 71.5696C40.6775 71.6084 40.6371 71.6628 40.6156 71.7255C40.5941 71.7882 40.5926 71.856 40.6113 71.9196L43.2113 79.9196C43.2302 79.9819 43.229 80.0485 43.2079 80.1101C43.1868 80.1717 43.147 80.225 43.0939 80.2626C43.0408 80.3002 42.9772 80.3202 42.9121 80.3196C42.847 80.3191 42.7838 80.2981 42.7313 80.2596L35.9413 75.3296C35.8893 75.2907 35.8262 75.2696 35.7613 75.2696C35.6964 75.2696 35.6332 75.2907 35.5813 75.3296L28.7913 80.2596C28.7404 80.2953 28.6796 80.3143 28.6175 80.3139C28.5553 80.3135 28.4948 80.2938 28.4443 80.2576C28.3938 80.2214 28.3558 80.1704 28.3356 80.1116C28.3153 80.0529 28.3138 79.9893 28.3313 79.9296L30.9213 71.9296C30.9426 71.8672 30.9434 71.7996 30.9236 71.7366C30.9038 71.6737 30.8645 71.6187 30.8113 71.5796L24.0213 66.6496C23.9688 66.6111 23.9297 66.5571 23.9096 66.4952C23.8896 66.4333 23.8895 66.3667 23.9094 66.3047C23.9293 66.2428 23.9682 66.1887 24.0206 66.1501C24.073 66.1115 24.1362 66.0903 24.2013 66.0896H32.5913C32.6571 66.091 32.7217 66.0714 32.7756 66.0336C32.8296 65.9959 32.8701 65.942 32.8913 65.8796L35.4813 57.8796C35.5074 57.8313 35.5459 57.7907 35.5928 57.7621C35.6397 57.7335 35.6934 57.7179 35.7483 57.7169C35.8033 57.7158 35.8575 57.7294 35.9055 57.7563C35.9535 57.7831 35.9934 57.8223 36.0213 57.8696Z" fill="#071A35"/>
<path d="M36.0224 57.2795L38.6125 65.2795C38.6318 65.341 38.6705 65.3947 38.7227 65.4325C38.7749 65.4703 38.838 65.4903 38.9024 65.4895H47.3324C47.3975 65.4902 47.4607 65.5113 47.5131 65.5499C47.5655 65.5885 47.6044 65.6427 47.6243 65.7047C47.6442 65.7666 47.6441 65.8333 47.6241 65.8952C47.604 65.9571 47.5649 66.011 47.5124 66.0495L40.6924 70.9295C40.6386 70.9682 40.5982 71.0227 40.5767 71.0854C40.5552 71.1481 40.5537 71.2159 40.5724 71.2795L43.1725 79.2795C43.1914 79.3418 43.1902 79.4084 43.1691 79.47C43.148 79.5315 43.1081 79.5849 43.055 79.6225C43.0019 79.6601 42.9383 79.6801 42.8732 79.6796C42.8081 79.679 42.7449 79.658 42.6924 79.6195L35.9024 74.6895C35.8505 74.6506 35.7874 74.6295 35.7225 74.6295C35.6575 74.6295 35.5944 74.6506 35.5425 74.6895L28.7524 79.6195C28.7012 79.6615 28.6375 79.6853 28.5713 79.6873C28.5051 79.6893 28.4402 79.6693 28.3865 79.6305C28.3329 79.5917 28.2936 79.5362 28.2748 79.4727C28.2559 79.4092 28.2586 79.3413 28.2825 79.2795L30.8724 71.2795C30.8937 71.217 30.8946 71.1494 30.8748 71.0865C30.855 71.0236 30.8156 70.9686 30.7624 70.9295L23.9725 65.9995C23.92 65.9611 23.8809 65.907 23.8608 65.8451C23.8407 65.7832 23.8407 65.7166 23.8606 65.6546C23.8805 65.5927 23.9194 65.5386 23.9718 65.5C24.0242 65.4613 24.0874 65.4402 24.1524 65.4395H32.5425C32.6083 65.4409 32.6728 65.4213 32.7268 65.3836C32.7807 65.3458 32.8212 65.2918 32.8424 65.2295L35.4324 57.2295C35.4573 57.1682 35.5011 57.1165 35.5575 57.0819C35.6139 57.0473 35.6799 57.0317 35.7458 57.0372C35.8118 57.0428 35.8742 57.0693 35.9239 57.1129C35.9737 57.1565 36.0082 57.2149 36.0224 57.2795Z" fill="url(#paint0_linear_1007_14212)"/>
<path d="M63.7927 0.0299683V62.03C58.101 58.7789 51.8946 56.5264 45.4426 55.37L45.3326 39.4C45.3326 33.81 43.1627 27.56 35.2327 27.5C27.0027 27.57 25.1427 34 25.1127 39.41L25.0226 55.35C18.5895 56.5123 12.4012 58.7611 6.72266 62V0H25.0726C25.0726 5.84667 25.0393 11.6967 24.9727 17.55C28.2457 16.754 31.6043 16.3644 34.9727 16.39C38.524 16.3505 42.0658 16.7638 45.5126 17.62C45.5126 11.7467 45.4793 5.87333 45.4127 0L63.7927 0.0299683Z" fill="url(#paint1_linear_1007_14212)"/>
<path d="M9.45134 96.5095V93.9295H17.6813V100.099C16.6282 100.856 15.4503 101.421 14.2013 101.769C12.7111 102.246 11.156 102.489 9.59135 102.489C7.81585 102.535 6.05162 102.194 4.42134 101.489C3.03985 100.891 1.8818 99.8729 1.11134 98.5795C0.375167 97.332 -0.00846475 95.908 0.00135565 94.4595C-0.0274927 92.934 0.404671 91.4353 1.24135 90.1594C2.12565 88.85 3.38859 87.8418 4.86134 87.2695C6.3056 86.7159 7.84529 86.4542 9.39134 86.4995C11.3001 86.401 13.2001 86.819 14.8913 87.7095C15.5155 88.0694 16.0615 88.5502 16.4977 89.1237C16.9338 89.6972 17.2512 90.3519 17.4313 91.0495L13.6413 91.6395C13.3821 90.8715 12.8478 90.2268 12.1413 89.8295C11.3021 89.3626 10.3511 89.1343 9.39134 89.1695C7.9427 89.09 6.51647 89.5535 5.39134 90.4694C4.87549 90.9641 4.47535 91.5666 4.2195 92.2339C3.96364 92.9012 3.85839 93.6168 3.91133 94.3295C3.85344 95.085 3.9573 95.8441 4.21596 96.5562C4.47461 97.2684 4.88212 97.9173 5.41133 98.4595C6.48996 99.4098 7.89526 99.9045 9.33134 99.8394C10.146 99.8357 10.9554 99.7076 11.7314 99.4595C12.4597 99.2386 13.1557 98.9225 13.8013 98.5195V96.5195L9.45134 96.5095Z" fill="url(#paint2_linear_1007_14212)"/>
<path d="M38.252 102.2H34.092L32.442 98.6797H24.892L23.332 102.2H19.332L26.692 86.7197H30.692L38.252 102.2ZM31.252 96.0698L28.642 90.3298L26.092 96.0698H31.252Z" fill="url(#paint3_linear_1007_14212)"/>
<path d="M42.5729 102.2V89.3397H36.9629V86.7197H51.9629V89.3397H46.3629V102.2H42.5729Z" fill="url(#paint4_linear_1007_14212)"/>
<path d="M54.4414 102.2V86.7197H68.5014V89.3397H58.2614V92.7698H68.5014V95.3798H58.2614V99.5897H68.5014V102.2H54.4414Z" fill="url(#paint5_linear_1007_14212)"/>
<defs>
<linearGradient id="paint0_linear_1007_14212" x1="31.1224" y1="76.0595" x2="42.4824" y2="59.5395" gradientUnits="userSpaceOnUse">
<stop stop-color="#E37500"/>
<stop offset="1" stop-color="#FCF42E"/>
</linearGradient>
<linearGradient id="paint1_linear_1007_14212" x1="6.74266" y1="31.01" x2="63.7927" y2="31.01" gradientUnits="userSpaceOnUse">
<stop stop-color="#5B38AD"/>
<stop offset="0.07" stop-color="#69419E"/>
<stop offset="0.35" stop-color="#99616C"/>
<stop offset="0.49" stop-color="#AB6D59"/>
<stop offset="0.52" stop-color="#A5695F"/>
<stop offset="0.84" stop-color="#704697"/>
<stop offset="1" stop-color="#5B38AD"/>
</linearGradient>
<linearGradient id="paint2_linear_1007_14212" x1="0.00135562" y1="94.4595" x2="17.6813" y2="94.4595" gradientUnits="userSpaceOnUse">
<stop offset="1" stop-color="#371C7E"/>
</linearGradient>
<linearGradient id="paint3_linear_1007_14212" x1="19.282" y1="94.4597" x2="38.252" y2="94.4597" gradientUnits="userSpaceOnUse">
<stop offset="1" stop-color="#371C7E"/>
</linearGradient>
<linearGradient id="paint4_linear_1007_14212" x1="36.9629" y1="94.4597" x2="51.9829" y2="94.4597" gradientUnits="userSpaceOnUse">
<stop offset="1" stop-color="#371C7E"/>
</linearGradient>
<linearGradient id="paint5_linear_1007_14212" x1="54.4414" y1="94.4597" x2="68.5014" y2="94.4597" gradientUnits="userSpaceOnUse">
<stop offset="1" stop-color="#371C7E"/>
</linearGradient>
</defs>
</svg>
