<svg width="24" height="28" viewBox="0 0 24 28" fill="none" xmlns="http://www.w3.org/2000/svg">
<path d="M2.22 27.5482C2.28647 27.5036 2.36132 27.4729 2.44 27.4581H5.87C5.94 27.4581 6.12999 27.5382 6.09999 27.5482H19.33C17.65 26.5482 15.11 26.0882 15.59 23.5482L18.33 23.9782C18.8993 24.0779 19.4852 24.0112 20.0174 23.7859C20.5496 23.5606 21.0054 23.1863 21.33 22.7081C21.4788 22.3941 21.5517 22.0495 21.5431 21.7022C21.5344 21.3548 21.4443 21.0143 21.28 20.7081L21.97 19.5781C22.1403 19.2613 22.2336 18.9087 22.2423 18.5491C22.251 18.1895 22.1748 17.8329 22.02 17.5082C22.5182 17.3594 22.9954 17.1477 23.44 16.8782C24.32 16.2582 23.65 14.9682 23.21 14.2182L21.69 11.6781C21.9362 11.1905 22.1177 10.6728 22.23 10.1382C22.2584 9.12177 22.1164 8.10775 21.81 7.1382C21.5392 6.12713 21.1604 5.14811 20.68 4.21815C18.68 0.158155 14.34 -0.161767 10.3 0.0482332C8.61502 0.149305 6.98378 0.679008 5.56097 1.5873C4.13816 2.49558 2.97095 3.75229 2.17 5.23817C1.41592 6.51022 1.03797 7.96997 1.08 9.44814C1.07171 10.672 1.26774 11.8889 1.66 13.0482C2.15234 14.3011 2.78289 15.4951 3.53999 16.6082L5.03 18.8782C5.84 20.1282 4.63 22.5082 3.84 23.6082C3.0699 24.6978 2.14712 25.6712 1.09999 26.4982C0.707924 26.8025 0.340154 27.1368 0 27.4982L2.22 27.5482ZM9.5 26.3882C9.56 26.3882 9.38 26.5082 9.34 26.5082C7.34 26.4182 5.04999 26.6382 3.20999 26.3782C4.28904 25.251 5.19552 23.9705 5.89999 22.5781C6.47999 21.3481 6.82 19.4182 6.08 18.2682L4.02 15.0681C2.62794 13.0482 2.05924 10.5732 2.42999 8.14821C2.71938 6.81572 3.31074 5.56737 4.15852 4.4994C5.00631 3.43144 6.0879 2.57232 7.31999 1.98817C8.57975 1.43215 9.94301 1.14932 11.32 1.15822C15.03 0.988218 18.46 1.83815 19.91 5.58815C20.3336 6.61076 20.6682 7.66805 20.91 8.74818C21.0556 9.32623 21.0135 9.93558 20.79 10.4882L20.28 11.6682C21.02 13.1782 21.95 14.2582 22.66 15.8982C21.71 16.5482 20.8 16.0281 20.77 17.0781C20.7453 17.5898 20.852 18.0993 21.08 18.5581C20.79 19.2681 19.9 20.0382 20.02 20.7182C20.1 21.1382 20.36 21.6581 20.19 22.0581C20.0295 22.3161 19.7943 22.5193 19.5158 22.6408C19.2372 22.7622 18.9283 22.7962 18.63 22.7382L14.85 22.1881C14.4373 22.8024 14.2287 23.5311 14.2538 24.2708C14.2789 25.0104 14.5365 25.7233 14.99 26.3081L9.5 26.3882Z" fill="url(#paint0_linear_1012_14360)"/>
<path d="M2.2207 27.5481H6.10069C6.10069 27.5481 5.9407 27.458 5.8707 27.458H2.4407C2.36202 27.4728 2.28717 27.5035 2.2207 27.5481Z" fill="url(#paint1_linear_1012_14360)"/>
<path d="M3.16992 26.3779C5.00992 26.6379 7.32993 26.3779 9.29993 26.5079C9.29993 26.5079 9.51992 26.3779 9.45992 26.3879L3.16992 26.3779Z" fill="url(#paint2_linear_1012_14360)"/>
<path d="M6.79027 14.7883C7.31872 14.9681 7.89182 14.9681 8.42027 14.7883C8.69027 14.6883 8.63027 14.2183 8.92027 13.8883C9.21027 13.5583 9.66027 14.7483 10.7603 13.6483C11.6803 12.7383 10.5303 12.1982 10.8703 11.9782C11.2103 11.7582 11.7403 11.7283 11.8703 11.3683C11.9703 10.961 11.9703 10.5356 11.8703 10.1283C11.7403 9.54827 11.1603 9.74825 10.8703 9.47825C10.5803 9.20825 11.6203 8.81822 10.7503 7.82822C9.88027 6.83822 9.16028 7.82822 8.88028 7.57822C8.60028 7.32822 8.69027 6.80822 8.39027 6.69822C7.87983 6.51335 7.32072 6.51335 6.81027 6.69822C6.64027 6.76822 6.52027 7.1383 6.45027 7.2783L6.30028 7.58823C6.18028 7.83823 5.13028 6.74826 4.30028 7.98826C3.67028 8.98826 4.63028 9.14827 4.30028 9.49827C4.22047 9.57388 4.11912 9.62282 4.01027 9.63828C3.8922 9.64711 3.7774 9.68103 3.67355 9.73789C3.56971 9.79475 3.47923 9.87328 3.40819 9.96799C3.33715 10.0627 3.2872 10.1715 3.26169 10.2871C3.23618 10.4027 3.23569 10.5225 3.26027 10.6383C3.26027 10.9383 3.26027 11.5183 3.54027 11.6383L4.44028 12.0083L4.03027 12.8683C4.16436 13.2718 4.42358 13.6221 4.77028 13.8683C5.49028 14.4383 5.83027 13.7483 6.20027 13.7883C6.57027 13.8283 6.49027 14.6683 6.79027 14.7883ZM7.34027 13.6683C7.25739 13.4882 7.13409 13.3295 6.97995 13.2047C6.82581 13.0799 6.64498 12.9924 6.45151 12.9488C6.25804 12.9053 6.05714 12.907 5.86441 12.9537C5.67169 13.0004 5.49233 13.0909 5.34027 13.2182C5.00027 12.8782 5.99027 11.5883 4.51027 10.9883C4.42027 10.9883 4.22028 10.7782 4.27028 10.7182C4.34813 10.6491 4.43573 10.5919 4.53027 10.5483C4.70176 10.481 4.85711 10.3782 4.98618 10.2467C5.11524 10.1152 5.21512 9.95796 5.2793 9.78525C5.34347 9.61255 5.37049 9.42822 5.3586 9.24436C5.3467 9.0605 5.29615 8.88123 5.21027 8.71824C5.18077 8.64441 5.18077 8.56209 5.21027 8.48826C5.21027 8.48826 5.43028 8.48826 5.49028 8.48826C5.65636 8.56761 5.8368 8.61241 6.02071 8.61997C6.20461 8.62753 6.38814 8.59765 6.56017 8.5322C6.7322 8.46676 6.88914 8.36712 7.02151 8.23923C7.15389 8.11135 7.25894 7.95798 7.33028 7.78831C7.33028 7.70831 7.51028 7.5582 7.58028 7.5582C7.65028 7.5582 8.32028 9.13825 9.63028 8.47825C9.72372 8.44292 9.82683 8.44292 9.92027 8.47825C9.98027 8.47825 9.30028 10.0783 10.6603 10.5383C10.7538 10.5796 10.8412 10.6334 10.9203 10.6982C10.9703 10.6982 10.7803 10.9282 10.6803 10.9482C10.5092 11.0093 10.3527 11.1054 10.2208 11.2302C10.0888 11.355 9.98423 11.5059 9.9137 11.6733C9.84317 11.8407 9.80823 12.0209 9.81108 12.2025C9.81393 12.3841 9.85451 12.5632 9.93027 12.7282C9.93027 12.8082 9.93027 13.0483 9.93027 13.0483C9.82381 13.0577 9.71673 13.0577 9.61028 13.0483C9.42208 12.9723 9.21954 12.9384 9.01688 12.9491C8.81421 12.9597 8.61633 13.0147 8.43715 13.11C8.25797 13.2053 8.10184 13.3387 7.97972 13.5008C7.8576 13.6629 7.77246 13.8498 7.73027 14.0483C7.64259 14.0153 7.56269 13.9644 7.49557 13.899C7.42846 13.8336 7.37559 13.7551 7.34027 13.6683Z" fill="url(#paint3_linear_1012_14360)"/>
<path d="M12.38 7.40856C12.51 7.72856 13.06 7.68857 13.38 7.66857C13.517 7.66677 13.6492 7.61807 13.7547 7.53075C13.8602 7.44344 13.9326 7.32266 13.96 7.18847L14.05 6.90856C14.16 6.58856 14.9 7.55857 15.51 6.66857L15.77 6.28857C15.93 6.05857 15.4 5.69854 15.54 5.50854C15.68 5.31854 16.42 5.36848 16.39 4.44848C16.36 3.52848 15.13 3.78853 15.58 3.24853C15.6417 3.17623 15.6875 3.09181 15.7145 3.00073C15.7415 2.90964 15.7491 2.81394 15.7369 2.71972C15.7246 2.6255 15.6928 2.53488 15.6434 2.45373C15.594 2.37258 15.5281 2.30266 15.45 2.24853C14.72 1.52853 14.38 2.24852 14.11 2.11852C13.84 1.98852 13.88 1.46856 13.64 1.40856C13.2818 1.3586 12.9183 1.3586 12.56 1.40856C12.29 1.50856 12.22 2.33854 11.91 2.13854C11.7235 2.00846 11.4935 1.95651 11.2693 1.99389C11.045 2.03127 10.8442 2.15496 10.71 2.33849C10.17 2.96849 10.71 3.00851 10.71 3.47851C10.71 3.79851 9.85003 3.47851 9.89003 4.47851C9.93003 5.47851 10.66 5.10851 10.75 5.47851C10.7559 5.59528 10.7243 5.71083 10.66 5.80846C10.37 6.17846 10.6 6.49853 10.88 6.74853C11.89 7.68853 11.89 6.17856 12.38 7.40856ZM12.92 6.82848C12.38 5.64848 10.92 6.82855 11.29 6.01855C11.83 4.81855 9.87003 4.60846 10.75 4.30846C11.63 4.00846 11.07 2.6785 11.3 2.7185H11.61C12.61 2.8785 12.56 2.71855 13.12 1.89855L13.63 2.63854C14.01 2.84854 15.31 2.45846 15 2.92846C14.9317 3.04268 14.8895 3.17072 14.8765 3.30322C14.8636 3.43571 14.8801 3.56939 14.9251 3.69469C14.9701 3.82 15.0423 3.93379 15.1365 4.02782C15.2307 4.12186 15.3446 4.19382 15.47 4.23852C15.5724 4.28679 15.6591 4.36304 15.72 4.45849C15.72 4.51849 15.57 4.66848 15.5 4.69848C14.44 5.03848 15.17 6.25854 14.96 6.25854C14.5 6.25854 13.63 5.99852 13.36 6.73852C13.3143 6.84 13.2372 6.92412 13.14 6.97851C13.09 7.03851 12.94 6.89848 12.92 6.82848Z" fill="url(#paint4_linear_1012_14360)"/>
<path d="M7.31079 12.818C7.82548 12.9012 8.35264 12.788 8.78786 12.501C9.22308 12.2139 9.53463 11.7739 9.6608 11.2681C9.78848 10.7685 9.71828 10.239 9.46488 9.78992C9.21147 9.34087 8.79444 9.00698 8.3008 8.85804C8.02548 8.79174 7.74389 8.75488 7.46079 8.74805C6.95374 8.74681 6.46515 8.93815 6.09386 9.28345C5.72256 9.62876 5.49628 10.1022 5.46079 10.608C5.43189 10.8756 5.45728 11.1462 5.53543 11.4037C5.61359 11.6612 5.7429 11.9002 5.91563 12.1066C6.08836 12.3129 6.30095 12.4824 6.54068 12.6046C6.78041 12.7269 7.04234 12.7994 7.31079 12.818ZM7.6908 11.618C7.57917 11.6259 7.46709 11.6117 7.36095 11.5763C7.25481 11.5409 7.15668 11.4849 7.07217 11.4115C6.98767 11.3381 6.91845 11.2489 6.86845 11.1488C6.81846 11.0487 6.78867 10.9396 6.78079 10.828C6.77291 10.7164 6.7871 10.6043 6.82254 10.4982C6.85798 10.392 6.91396 10.294 6.98732 10.2095C7.06068 10.125 7.14997 10.0557 7.25008 10.0057C7.35019 9.95575 7.45916 9.92598 7.57079 9.9181C7.68241 9.91022 7.79449 9.92441 7.90064 9.95984C8.00678 9.99528 8.10491 10.0512 8.18941 10.1245C8.27391 10.1979 8.34313 10.2872 8.39313 10.3873C8.44312 10.4874 8.47291 10.5964 8.48079 10.708C8.48867 10.8196 8.47449 10.9317 8.43906 11.0378C8.40362 11.144 8.34762 11.2422 8.27426 11.3267C8.2009 11.4112 8.11162 11.4804 8.01151 11.5304C7.91139 11.5804 7.80242 11.6102 7.6908 11.618Z" fill="url(#paint5_linear_1012_14360)"/>
<path d="M11.7195 4.98839C11.7839 5.27572 11.9454 5.53206 12.1767 5.71422C12.408 5.89638 12.6951 5.99321 12.9895 5.98839C13.1931 6.01169 13.3993 5.99095 13.5942 5.9276C13.7891 5.86425 13.9681 5.75976 14.1191 5.6212C14.27 5.48264 14.3895 5.31324 14.4692 5.1245C14.549 4.93576 14.5873 4.73204 14.5816 4.52721C14.5758 4.32237 14.526 4.12117 14.4357 3.93724C14.3453 3.75331 14.2165 3.59098 14.058 3.46117C13.8994 3.33136 13.7148 3.23716 13.5167 3.18492C13.3185 3.13268 13.1115 3.12367 12.9095 3.15843C12.512 3.2171 12.1531 3.4288 11.9095 3.7484C11.7949 3.93116 11.7189 4.13548 11.6862 4.34874C11.6535 4.562 11.6649 4.77968 11.7195 4.98839ZM12.9395 5.32836C12.73 5.29388 12.5428 5.17765 12.419 5.00511C12.2952 4.83258 12.2451 4.61796 12.2795 4.40843C12.314 4.19891 12.4303 4.01158 12.6028 3.8878C12.7754 3.76403 12.99 3.71392 13.1995 3.7484C13.3674 3.76365 13.5267 3.82902 13.6569 3.93602C13.7871 4.04302 13.8821 4.18668 13.9295 4.34838C13.9491 4.51407 13.9242 4.68205 13.8574 4.83495C13.7906 4.98784 13.6844 5.12013 13.5495 5.21837C13.4715 5.29712 13.371 5.34994 13.2619 5.36962C13.1528 5.3893 13.0402 5.37488 12.9395 5.32836Z" fill="url(#paint6_linear_1012_14360)"/>
<defs>
<linearGradient id="paint0_linear_1012_14360" x1="0" y1="13.7582" x2="23.83" y2="13.7582" gradientUnits="userSpaceOnUse">
<stop offset="1" stop-color="#361C7E"/>
</linearGradient>
<linearGradient id="paint1_linear_1012_14360" x1="2.2207" y1="27.5081" x2="6.10069" y2="27.5081" gradientUnits="userSpaceOnUse">
<stop offset="1" stop-color="#361C7E"/>
</linearGradient>
<linearGradient id="paint2_linear_1012_14360" x1="3.20992" y1="26.4379" x2="9.50992" y2="26.4379" gradientUnits="userSpaceOnUse">
<stop offset="1" stop-color="#361C7E"/>
</linearGradient>
<linearGradient id="paint3_linear_1012_14360" x1="3.30027" y1="10.7683" x2="11.9103" y2="10.7683" gradientUnits="userSpaceOnUse">
<stop offset="1" stop-color="#361C7E"/>
</linearGradient>
<linearGradient id="paint4_linear_1012_14360" x1="9.85003" y1="4.53857" x2="16.39" y2="4.53857" gradientUnits="userSpaceOnUse">
<stop offset="1" stop-color="#361C7E"/>
</linearGradient>
<linearGradient id="paint5_linear_1012_14360" x1="5.49079" y1="10.798" x2="9.7208" y2="10.798" gradientUnits="userSpaceOnUse">
<stop offset="1" stop-color="#361C7E"/>
</linearGradient>
<linearGradient id="paint6_linear_1012_14360" x1="11.6595" y1="4.52841" x2="14.5995" y2="4.52841" gradientUnits="userSpaceOnUse">
<stop offset="1" stop-color="#361C7E"/>
</linearGradient>
</defs>
</svg>
