<svg width="135" height="63" viewBox="0 0 135 63" fill="none" xmlns="http://www.w3.org/2000/svg">
<path d="M57.07 0.0299683V62.03C51.3783 58.7789 45.1719 56.5264 38.72 55.37L38.61 39.4C38.61 33.81 36.44 27.56 28.51 27.5C20.28 27.57 18.42 34 18.39 39.41L18.3 55.35C11.8669 56.5123 5.67851 58.7611 0 62V0H18.35C18.35 5.84667 18.3167 11.6967 18.25 17.55C21.523 16.754 24.8817 16.3644 28.25 16.39C31.8013 16.3505 35.3432 16.7638 38.79 17.62C38.79 11.7467 38.7567 5.87333 38.69 0L57.07 0.0299683Z" fill="url(#paint0_linear_1223_1167)"/>
<path d="M88.1 20.8333C81.4153 21.4734 74.6847 21.4734 68 20.8333C74.6845 20.1884 81.4155 20.1884 88.1 20.8333Z" fill="#111149"/>
<path d="M132.809 20.7837C125.961 21.4287 119.067 21.4287 112.219 20.7837C119.067 20.1437 125.96 20.1437 132.809 20.7837Z" fill="#111149"/>
<path d="M100.789 9.83349L103.379 17.8335C103.398 17.895 103.437 17.9487 103.489 17.9865C103.541 18.0243 103.604 18.0443 103.669 18.0435H112.099C112.164 18.0442 112.227 18.0653 112.28 18.1039C112.332 18.1425 112.371 18.1966 112.391 18.2586C112.411 18.3205 112.411 18.3872 112.39 18.4491C112.37 18.511 112.331 18.565 112.279 18.6035L105.499 23.5335C105.445 23.5722 105.405 23.6267 105.383 23.6894C105.362 23.7521 105.36 23.8199 105.379 23.8835L107.979 31.8835C107.998 31.9457 107.997 32.0124 107.976 32.074C107.954 32.1355 107.915 32.1889 107.861 32.2265C107.808 32.2641 107.745 32.284 107.68 32.2835C107.615 32.283 107.551 32.262 107.499 32.2235L100.709 27.2935C100.657 27.2546 100.594 27.2335 100.529 27.2335C100.464 27.2335 100.401 27.2546 100.349 27.2935L93.5589 32.2235C93.508 32.2592 93.4472 32.2781 93.3851 32.2778C93.3229 32.2774 93.2624 32.2577 93.2119 32.2215C93.1614 32.1853 93.1234 32.1343 93.1031 32.0755C93.0829 32.0167 93.0814 31.9531 93.0989 31.8935L95.6889 23.8935C95.7102 23.831 95.711 23.7634 95.6912 23.7005C95.6714 23.6375 95.632 23.5825 95.5788 23.5435L88.7889 18.6135C88.7364 18.575 88.6973 18.521 88.6772 18.4591C88.6572 18.3972 88.6571 18.3306 88.677 18.2686C88.6969 18.2067 88.7358 18.1526 88.7882 18.1139C88.8406 18.0753 88.9038 18.0541 88.9689 18.0535H97.3589C97.4247 18.0548 97.4893 18.0352 97.5432 17.9975C97.5971 17.9597 97.6376 17.9058 97.6589 17.8435L100.249 9.8435C100.275 9.79513 100.313 9.75454 100.36 9.72594C100.407 9.69735 100.461 9.68173 100.516 9.68072C100.571 9.6797 100.625 9.69331 100.673 9.72015C100.721 9.74699 100.761 9.78612 100.789 9.83349Z" fill="#071A35"/>
<path d="M100.79 9.24336L103.38 17.2434C103.399 17.3049 103.438 17.3585 103.49 17.3964C103.543 17.4342 103.606 17.4542 103.67 17.4534H112.1C112.165 17.4541 112.228 17.4752 112.281 17.5138C112.333 17.5524 112.372 17.6066 112.392 17.6685C112.412 17.7305 112.412 17.7971 112.392 17.859C112.372 17.9209 112.332 17.9749 112.28 18.0134L105.46 22.8934C105.406 22.9321 105.366 22.9866 105.344 23.0493C105.323 23.112 105.321 23.1798 105.34 23.2434L107.94 31.2434C107.959 31.3056 107.958 31.3723 107.937 31.4338C107.916 31.4954 107.876 31.5488 107.823 31.5864C107.769 31.624 107.706 31.644 107.641 31.6434C107.576 31.6429 107.512 31.6219 107.46 31.5834L100.67 26.6534C100.618 26.6144 100.555 26.5934 100.49 26.5934C100.425 26.5934 100.362 26.6144 100.31 26.6534L93.52 31.5834C93.4688 31.6253 93.4051 31.6492 93.3389 31.6511C93.2727 31.6531 93.2077 31.6332 93.1541 31.5944C93.1004 31.5556 93.0612 31.5001 93.0423 31.4366C93.0235 31.3731 93.0262 31.3051 93.05 31.2434L95.64 23.2434C95.6613 23.1809 95.6622 23.1133 95.6424 23.0504C95.6226 22.9874 95.5832 22.9324 95.53 22.8934L88.74 17.9634C88.6876 17.9249 88.6485 17.8709 88.6284 17.809C88.6083 17.7471 88.6082 17.6804 88.6282 17.6185C88.6481 17.5565 88.687 17.5024 88.7394 17.4638C88.7917 17.4252 88.855 17.4041 88.92 17.4034H97.31C97.3759 17.4048 97.4404 17.3852 97.4944 17.3474C97.5483 17.3097 97.5888 17.2557 97.61 17.1934L100.2 9.19337C100.225 9.13207 100.269 9.08033 100.325 9.04573C100.382 9.01113 100.447 8.99552 100.513 9.00111C100.579 9.0067 100.642 9.0332 100.692 9.07679C100.741 9.12039 100.776 9.17874 100.79 9.24336Z" fill="url(#paint1_linear_1223_1167)"/>
<path d="M75.4513 48.0241V45.4441H83.6813V51.6141C82.6282 52.3704 81.4503 52.9358 80.2013 53.2841C78.7111 53.7607 77.156 54.0036 75.5914 54.0041C73.8159 54.0501 72.0516 53.7089 70.4213 53.0041C69.0399 52.4057 67.8818 51.3876 67.1113 50.0941C66.3752 48.8466 65.9915 47.4226 66.0014 45.9741C65.9725 44.4487 66.4047 42.95 67.2413 41.6741C68.1256 40.3647 69.3886 39.3565 70.8613 38.7841C72.3056 38.2306 73.8453 37.9688 75.3913 38.0141C77.3001 37.9157 79.2001 38.3337 80.8913 39.2241C81.5155 39.5841 82.0615 40.0648 82.4977 40.6383C82.9338 41.2118 83.2512 41.8665 83.4313 42.5641L79.6413 43.1541C79.3821 42.3862 78.8478 41.7414 78.1413 41.3441C77.3021 40.8772 76.3511 40.6489 75.3913 40.6841C73.9427 40.6046 72.5165 41.0681 71.3913 41.9841C70.8755 42.4787 70.4753 43.0813 70.2195 43.7486C69.9636 44.4158 69.8584 45.1314 69.9113 45.8441C69.8534 46.5996 69.9573 47.3587 70.216 48.0709C70.4746 48.783 70.8821 49.4319 71.4113 49.9741C72.49 50.9245 73.8953 51.4191 75.3313 51.3541C76.146 51.3504 76.9554 51.2223 77.7314 50.9741C78.4597 50.7532 79.1557 50.4372 79.8013 50.0341V48.0341L75.4513 48.0241Z" fill="url(#paint2_linear_1223_1167)"/>
<path d="M104.252 53.7144H100.092L98.442 50.1944H90.892L89.332 53.7144H85.332L92.692 38.2344H96.692L104.252 53.7144ZM97.252 47.5844L94.642 41.8444L92.092 47.5844H97.252Z" fill="url(#paint3_linear_1223_1167)"/>
<path d="M108.573 53.7144V40.8544H102.963V38.2344H117.963V40.8544H112.363V53.7144H108.573Z" fill="url(#paint4_linear_1223_1167)"/>
<path d="M120.441 53.7144V38.2344H134.501V40.8544H124.261V44.2844H134.501V46.8944H124.261V51.1044H134.501V53.7144H120.441Z" fill="url(#paint5_linear_1223_1167)"/>
<defs>
<linearGradient id="paint0_linear_1223_1167" x1="0.02" y1="31.01" x2="57.07" y2="31.01" gradientUnits="userSpaceOnUse">
<stop stop-color="#5B38AD"/>
<stop offset="0.07" stop-color="#69419E"/>
<stop offset="0.35" stop-color="#99616C"/>
<stop offset="0.49" stop-color="#AB6D59"/>
<stop offset="0.52" stop-color="#A5695F"/>
<stop offset="0.84" stop-color="#704697"/>
<stop offset="1" stop-color="#5B38AD"/>
</linearGradient>
<linearGradient id="paint1_linear_1223_1167" x1="95.89" y1="28.0234" x2="107.25" y2="11.5034" gradientUnits="userSpaceOnUse">
<stop stop-color="#E37500"/>
<stop offset="1" stop-color="#FCF42E"/>
</linearGradient>
<linearGradient id="paint2_linear_1223_1167" x1="66.0014" y1="45.9741" x2="83.6813" y2="45.9741" gradientUnits="userSpaceOnUse">
<stop offset="1" stop-color="#371C7E"/>
</linearGradient>
<linearGradient id="paint3_linear_1223_1167" x1="85.282" y1="45.9744" x2="104.252" y2="45.9744" gradientUnits="userSpaceOnUse">
<stop offset="1" stop-color="#371C7E"/>
</linearGradient>
<linearGradient id="paint4_linear_1223_1167" x1="102.963" y1="45.9744" x2="117.983" y2="45.9744" gradientUnits="userSpaceOnUse">
<stop offset="1" stop-color="#371C7E"/>
</linearGradient>
<linearGradient id="paint5_linear_1223_1167" x1="120.441" y1="45.9744" x2="134.501" y2="45.9744" gradientUnits="userSpaceOnUse">
<stop offset="1" stop-color="#371C7E"/>
</linearGradient>
</defs>
</svg>
