<svg width="49" height="74" viewBox="0 0 49 74" fill="none" xmlns="http://www.w3.org/2000/svg">
<path d="M16.6095 49.1399C11.8404 49.5949 7.0387 49.5949 2.26953 49.1399C7.03847 48.6799 11.8406 48.6799 16.6095 49.1399Z" fill="white"/>
<path d="M48.5694 49.1C43.6768 49.5601 38.7519 49.5601 33.8594 49.1C38.7522 48.645 43.6766 48.645 48.5694 49.1Z" fill="white"/>
<path d="M25.7101 41.29L27.5601 46.98C27.5744 47.0251 27.6022 47.0645 27.6398 47.0931C27.6774 47.1218 27.7229 47.1381 27.7701 47.14H33.7701C33.818 47.1345 33.8663 47.1456 33.907 47.1715C33.9477 47.1973 33.9782 47.2365 33.9935 47.2822C34.0087 47.328 34.0078 47.3775 33.9908 47.4227C33.9737 47.4678 33.9417 47.5057 33.9001 47.53L29.0601 51.05C29.0216 51.0775 28.9931 51.1168 28.9787 51.1618C28.9643 51.2068 28.9647 51.2553 28.98 51.3L30.8301 57C30.8429 57.044 30.8417 57.0909 30.8266 57.1342C30.8115 57.1775 30.7832 57.215 30.7457 57.2414C30.7083 57.2678 30.6635 57.2819 30.6177 57.2817C30.5718 57.2814 30.5272 57.2668 30.4901 57.24L25.6501 53.72C25.6113 53.6951 25.5662 53.6818 25.5201 53.6818C25.4739 53.6818 25.4288 53.6951 25.3901 53.72L20.5201 57.2C20.4829 57.2269 20.4383 57.2414 20.3924 57.2416C20.3466 57.2419 20.3018 57.2279 20.2644 57.2014C20.2269 57.175 20.1987 57.1375 20.1835 57.0942C20.1684 57.051 20.1672 57.004 20.1801 56.96L22.0301 51.26C22.0454 51.2153 22.0458 51.1668 22.0314 51.1218C22.017 51.0767 21.9885 51.0376 21.95 51.01L17.1101 47.49C17.0684 47.4657 17.0364 47.4278 17.0194 47.3827C17.0023 47.3376 17.0014 47.2879 17.0166 47.2422C17.0319 47.1964 17.0624 47.1574 17.1031 47.1315C17.1438 47.1056 17.1922 47.0945 17.2401 47.1H23.2401C23.2869 47.0968 23.3317 47.0799 23.369 47.0515C23.4063 47.023 23.4345 46.9843 23.45 46.94L25.3001 41.25C25.3198 41.2098 25.3513 41.1766 25.3904 41.1548C25.4295 41.133 25.4744 41.1236 25.5189 41.128C25.5635 41.1323 25.6057 41.1502 25.6398 41.1791C25.674 41.2081 25.6985 41.2468 25.7101 41.29Z" fill="#071A35"/>
<path d="M25.7107 40.8603L27.5607 46.5603C27.5754 46.6042 27.6036 46.6424 27.6414 46.6694C27.6791 46.6963 27.7243 46.7106 27.7707 46.7103H33.7707C33.8177 46.7096 33.8638 46.7239 33.9021 46.7513C33.9404 46.7786 33.9689 46.8175 33.9834 46.8623C33.998 46.9071 33.9978 46.9553 33.9829 46.9999C33.968 47.0446 33.9392 47.0832 33.9007 47.1103L29.0607 50.6303C29.0222 50.6579 28.9937 50.697 28.9793 50.7421C28.9649 50.7871 28.9653 50.8356 28.9806 50.8803L30.8307 56.5703C30.8468 56.615 30.8481 56.6637 30.8343 56.7091C30.8205 56.7545 30.7924 56.7943 30.7541 56.8224C30.7159 56.8505 30.6695 56.8656 30.622 56.8652C30.5746 56.8648 30.5285 56.849 30.4907 56.8203L25.6507 53.3003C25.6136 53.2711 25.5678 53.2552 25.5207 53.2552C25.4735 53.2552 25.4277 53.2711 25.3907 53.3003L20.5406 56.8203C20.5028 56.849 20.4568 56.8648 20.4093 56.8652C20.3618 56.8656 20.3155 56.8505 20.2772 56.8224C20.239 56.7943 20.2108 56.7545 20.197 56.7091C20.1832 56.6637 20.1845 56.615 20.2006 56.5703L22.0507 50.8803C22.066 50.8356 22.0664 50.7871 22.052 50.7421C22.0376 50.697 22.0091 50.6579 21.9707 50.6303L17.1307 47.1103C17.0922 47.0832 17.0633 47.0446 17.0484 46.9999C17.0335 46.9553 17.0333 46.9071 17.0479 46.8623C17.0624 46.8175 17.0909 46.7786 17.1292 46.7513C17.1675 46.7239 17.2136 46.7096 17.2606 46.7103H23.2606C23.3066 46.7092 23.3512 46.6943 23.3887 46.6675C23.4261 46.6408 23.4547 46.6034 23.4707 46.5603L25.3206 40.8603C25.3393 40.8247 25.3673 40.7948 25.4017 40.774C25.436 40.7532 25.4755 40.7422 25.5157 40.7422C25.5558 40.7422 25.5953 40.7532 25.6297 40.774C25.664 40.7948 25.692 40.8247 25.7107 40.8603Z" fill="url(#paint0_linear_1007_14309)"/>
<path d="M45.5305 0V44.2C41.4644 41.8863 37.0347 40.2801 32.4305 39.45L32.3705 28.07C32.3705 24.07 30.8206 19.62 25.1606 19.58C19.2806 19.63 17.9605 24.22 17.9305 28.08L17.8705 39.46C13.2793 40.2855 8.86252 41.8885 4.81055 44.2V0H17.9106C17.9106 4.18 17.8872 8.3567 17.8405 12.53C20.1676 11.963 22.5555 11.6842 24.9505 11.7C27.4877 11.6731 30.018 11.9688 32.4805 12.58C32.4805 8.39335 32.4539 4.2 32.4005 0H45.5305Z" fill="url(#paint1_linear_1007_14309)"/>
<path d="M6.74093 68.8702V67.0002H12.6209V71.4103C11.8708 71.9498 11.0312 72.3527 10.1409 72.6003C9.07824 72.9448 7.96804 73.1202 6.85092 73.1202C5.57938 73.1465 4.31721 72.8975 3.15094 72.3902C2.16945 71.9555 1.34549 71.2293 0.790921 70.3102C0.255289 69.4025 -0.0181512 68.364 0.000943056 67.3102C-0.0193179 66.225 0.287303 65.1589 0.880948 64.2502C1.51518 63.3166 2.41853 62.5981 3.47094 62.1902C4.49979 61.792 5.59826 61.605 6.70092 61.6402C8.06117 61.569 9.41544 61.8661 10.6209 62.5002C11.0679 62.7576 11.4591 63.1016 11.7716 63.5119C12.0841 63.9223 12.3117 64.3909 12.4409 64.8902L9.74093 65.3002C9.54871 64.7563 9.16473 64.3013 8.66095 64.0202C8.05202 63.6779 7.35861 63.5149 6.66095 63.5502C5.63268 63.492 4.61976 63.8202 3.82092 64.4703C3.45434 64.8236 3.16953 65.2528 2.98642 65.7279C2.8033 66.2029 2.72632 66.7123 2.76092 67.2203C2.71425 67.7678 2.78562 68.3189 2.97021 68.8364C3.1548 69.354 3.44832 69.8259 3.83093 70.2203C4.60111 70.901 5.6038 71.2591 6.63095 71.2203C7.21555 71.2193 7.79619 71.1247 8.35092 70.9402C8.86731 70.7845 9.3614 70.5627 9.82092 70.2803V68.8802L6.74093 68.8702Z" fill="white"/>
<path d="M27.3005 72.9299H24.3005L23.1305 70.4199H17.7305L16.6205 72.9299H13.7305L18.9805 61.8799H21.8705L27.3005 72.9299ZM22.3005 68.5599L20.4405 64.4499L18.6205 68.5599H22.3005Z" fill="white"/>
<path d="M30.3809 72.9299V63.7499H26.3809V61.8799H37.1008V63.7499H33.1008V72.9299H30.3809Z" fill="white"/>
<path d="M38.8594 72.9299V61.8799H48.8594V63.7499H41.5494V66.1999H48.8594V68.0599H41.5494V71.0599H48.8594V72.9199L38.8594 72.9299Z" fill="white"/>
<defs>
<linearGradient id="paint0_linear_1007_14309" x1="22.2107" y1="54.2703" x2="30.3207" y2="42.4803" gradientUnits="userSpaceOnUse">
<stop stop-color="#E37500"/>
<stop offset="1" stop-color="#FCF42E"/>
</linearGradient>
<linearGradient id="paint1_linear_1007_14309" x1="4.81055" y1="22.12" x2="45.5305" y2="22.12" gradientUnits="userSpaceOnUse">
<stop stop-color="white"/>
<stop offset="0.09" stop-color="#D8CFEB"/>
<stop offset="0.23" stop-color="#A38FD1"/>
<stop offset="0.35" stop-color="#7C60BD"/>
<stop offset="0.44" stop-color="#6443B1"/>
<stop offset="0.49" stop-color="#5B38AD"/>
<stop offset="0.54" stop-color="#603EAF"/>
<stop offset="0.62" stop-color="#6E4FB6"/>
<stop offset="0.7" stop-color="#846AC2"/>
<stop offset="0.8" stop-color="#A491D2"/>
<stop offset="0.89" stop-color="#CDC2E6"/>
<stop offset="1" stop-color="white"/>
</linearGradient>
</defs>
</svg>
