<svg width="229" height="62" viewBox="0 0 229 62" fill="none" xmlns="http://www.w3.org/2000/svg">
<path d="M224.148 0.439941H170.758C168.627 0.439941 166.898 2.16799 166.898 4.2998V57.6899C166.898 59.8218 168.627 61.5498 170.758 61.5498H224.148C226.28 61.5498 228.008 59.8218 228.008 57.6899V4.2998C228.008 2.16799 226.28 0.439941 224.148 0.439941Z" stroke="url(#paint0_linear_1091_3086)" stroke-width="0.88" stroke-miterlimit="10"/>
<path d="M178.102 41.5498H180.102C180.767 41.591 181.392 41.8847 181.849 42.3706C182.306 42.8565 182.56 43.4982 182.56 44.165C182.56 44.8319 182.306 45.4736 181.849 45.9595C181.392 46.4454 180.767 46.7386 180.102 46.7798H178.102V41.5498ZM180.102 42.3901H179.362V45.9302H180.112C181.022 45.9302 181.482 45.3402 181.482 44.1602C181.523 43.6572 181.373 43.1567 181.062 42.7598C180.933 42.6306 180.778 42.5311 180.607 42.4673C180.436 42.4034 180.253 42.3771 180.072 42.3901H180.102Z" fill="white"/>
<path d="M184.681 42.5098H183.461V41.5098H184.681V42.5098ZM184.681 46.7798H183.551V43H184.681V46.7798Z" fill="white"/>
<path d="M187.165 46.1199C187.585 46.1199 187.795 45.9996 187.795 45.7596C187.801 45.7098 187.791 45.6599 187.765 45.6165C187.74 45.5732 187.701 45.5391 187.655 45.5198C187.409 45.4197 187.155 45.3428 186.895 45.2899C186.537 45.2217 186.197 45.0821 185.895 44.8797C185.777 44.7814 185.683 44.6574 185.62 44.5169C185.558 44.3764 185.529 44.2232 185.535 44.0696C185.529 43.892 185.57 43.7163 185.654 43.5599C185.739 43.4035 185.863 43.2723 186.015 43.18C186.374 42.9678 186.788 42.8668 187.205 42.89C187.646 42.8666 188.082 42.9898 188.445 43.2401C188.71 43.4357 188.889 43.7254 188.945 44.0496H187.805C187.745 43.7896 187.535 43.66 187.175 43.66C186.835 43.66 186.665 43.77 186.665 43.97C186.663 44.0205 186.676 44.0703 186.703 44.1131C186.73 44.1559 186.769 44.1896 186.815 44.2098C187.018 44.3079 187.233 44.3785 187.455 44.4197H187.595C187.919 44.4952 188.232 44.613 188.525 44.7698C188.662 44.8547 188.774 44.9742 188.849 45.1165C188.925 45.2588 188.961 45.4189 188.955 45.5799C188.969 45.775 188.931 45.9702 188.844 46.1458C188.758 46.3214 188.627 46.4712 188.465 46.5799C188.078 46.8075 187.633 46.9154 187.185 46.89C186.72 46.914 186.259 46.7838 185.875 46.5198C185.608 46.3264 185.428 46.0352 185.375 45.7098H186.515C186.529 45.7724 186.555 45.8315 186.593 45.8831C186.631 45.9348 186.679 45.9777 186.735 46.0096C186.866 46.0828 187.015 46.1211 187.165 46.1199Z" fill="white"/>
<path d="M191.904 46.02V46.79C191.68 46.8561 191.448 46.8899 191.214 46.8901C191.042 46.9031 190.87 46.8794 190.708 46.8208C190.546 46.7622 190.398 46.6696 190.274 46.5498C190.073 46.3255 189.969 46.0309 189.984 45.73V43.75H189.414V42.96H189.974L190.044 42.0498H191.114V42.96H191.884V43.75H191.114V45.75C191.112 45.794 191.118 45.8381 191.134 45.8794C191.149 45.9207 191.173 45.9586 191.204 45.9902C191.287 46.0459 191.385 46.0735 191.484 46.0698C191.625 46.0673 191.766 46.0508 191.904 46.02Z" fill="white"/>
<path d="M193.685 46.7501H192.555V42.9703H193.495L193.625 43.5401C193.694 43.3331 193.83 43.1546 194.01 43.0318C194.191 42.909 194.407 42.8485 194.625 42.8599C194.767 42.8416 194.912 42.8416 195.055 42.8599V43.92C194.9 43.8675 194.738 43.8404 194.575 43.8399C194.445 43.8429 194.319 43.8788 194.207 43.9434C194.095 44.0081 194.002 44.0996 193.935 44.21C193.772 44.4885 193.692 44.8076 193.705 45.1299L193.685 46.7501Z" fill="white"/>
<path d="M196.751 42.5098H195.531V41.5098H196.751V42.5098ZM196.751 46.7798H195.571V43H196.711L196.751 46.7798Z" fill="white"/>
<path d="M198.531 46.75H197.641V41.52H198.781V43.3301C198.927 43.1764 199.104 43.0551 199.301 42.9741C199.497 42.8932 199.708 42.8542 199.921 42.8599C200.16 42.8466 200.399 42.8878 200.621 42.9795C200.843 43.0712 201.041 43.2115 201.201 43.3901C201.491 43.7741 201.633 44.2497 201.601 44.73C201.621 45.0292 201.582 45.3298 201.484 45.6133C201.386 45.8968 201.232 46.1573 201.031 46.3799C200.872 46.5382 200.683 46.6626 200.475 46.7451C200.267 46.8277 200.044 46.8667 199.821 46.8599C199.61 46.864 199.401 46.8213 199.209 46.7349C199.017 46.6484 198.847 46.5203 198.711 46.3599L198.531 46.75ZM200.461 44.8301C200.461 44.0701 200.181 43.6899 199.621 43.6899C199.493 43.6821 199.366 43.7066 199.251 43.7607C199.136 43.8149 199.036 43.8971 198.961 44C198.8 44.242 198.722 44.5298 198.741 44.8198C198.741 45.6298 199.021 46.0298 199.581 46.0298C199.71 46.0363 199.838 46.0095 199.954 45.9517C200.07 45.8938 200.168 45.8074 200.241 45.7002C200.397 45.4487 200.474 45.1556 200.461 44.8599V44.8301Z" fill="white"/>
<path d="M202.365 43H203.495V45.5C203.487 45.5813 203.497 45.6635 203.525 45.7402C203.553 45.817 203.598 45.8861 203.657 45.9429C203.716 45.9997 203.786 46.0424 203.864 46.0679C203.942 46.0933 204.024 46.1009 204.105 46.0898C204.204 46.0938 204.303 46.0744 204.394 46.0327C204.484 45.991 204.563 45.9283 204.625 45.8501C204.751 45.6838 204.815 45.4785 204.805 45.27V43H205.975V46.75H204.975L204.865 46.3501C204.729 46.5194 204.555 46.654 204.356 46.7427C204.158 46.8313 203.942 46.8713 203.725 46.8599C203.528 46.8728 203.331 46.8422 203.148 46.7695C202.964 46.6969 202.8 46.5842 202.665 46.4399C202.444 46.1548 202.33 45.8006 202.345 45.4399L202.365 43Z" fill="white"/>
<path d="M209.029 46.02V46.79C208.805 46.8568 208.573 46.8906 208.339 46.8901C208.167 46.9024 207.995 46.8784 207.833 46.8198C207.671 46.7613 207.523 46.6691 207.399 46.5498C207.198 46.3255 207.094 46.0309 207.109 45.73V43.75H206.539V42.96H207.109L207.189 42.0498H208.249V42.96H209.029V43.75H208.249V45.75C208.247 45.7949 208.254 45.8398 208.272 45.8813C208.289 45.9229 208.315 45.9603 208.349 45.9902C208.427 46.0479 208.522 46.0759 208.619 46.0698C208.757 46.0667 208.894 46.0501 209.029 46.02Z" fill="white"/>
<path d="M209.504 44.8801C209.486 44.5945 209.529 44.3086 209.631 44.0412C209.733 43.7738 209.891 43.5314 210.094 43.3303C210.496 43.0185 210.996 42.8623 211.504 42.8903C211.787 42.8722 212.071 42.9143 212.336 43.0143C212.602 43.1143 212.843 43.27 213.044 43.4704C213.367 43.867 213.531 44.3692 213.504 44.8801C213.522 45.168 213.478 45.4565 213.375 45.7258C213.271 45.995 213.111 46.2388 212.904 46.4401C212.511 46.7625 212.011 46.9235 211.504 46.8903C211.223 46.907 210.941 46.8638 210.677 46.7638C210.413 46.6639 210.174 46.5093 209.974 46.3102C209.645 45.9085 209.478 45.3986 209.504 44.8801ZM210.674 44.8801C210.64 45.2322 210.728 45.5853 210.924 45.8801C210.995 45.9631 211.085 46.0286 211.185 46.072C211.286 46.1153 211.395 46.1352 211.504 46.1301C211.631 46.1411 211.759 46.1171 211.874 46.0607C211.988 46.0043 212.085 45.9178 212.154 45.8102C212.293 45.521 212.355 45.2004 212.334 44.8801C212.369 44.5292 212.284 44.177 212.094 43.8801C212.018 43.801 211.926 43.7396 211.825 43.6999C211.723 43.6602 211.613 43.6431 211.504 43.6501C211.375 43.6394 211.246 43.6636 211.13 43.7199C211.014 43.7762 210.915 43.8628 210.844 43.9704C210.712 44.2548 210.654 44.5673 210.674 44.8801Z" fill="white"/>
<path d="M215.419 46.7501H214.289V42.9703H215.229L215.359 43.5401C215.429 43.3331 215.564 43.1546 215.745 43.0318C215.925 42.909 216.141 42.8485 216.359 42.8599C216.502 42.8416 216.646 42.8416 216.789 42.8599V43.92C216.634 43.8675 216.472 43.8404 216.309 43.8399C216.18 43.8429 216.054 43.8788 215.942 43.9434C215.83 44.0081 215.736 44.0996 215.669 44.21C215.506 44.4885 215.426 44.8076 215.439 45.1299L215.419 46.7501Z" fill="white"/>
<path d="M190.584 29.1201H188.844V36.0801H190.584V29.1201Z" fill="white"/>
<path d="M199.352 32.5999C199.342 33.0827 199.431 33.5625 199.614 34.0096C199.796 34.4567 200.068 34.8614 200.413 35.1995C200.757 35.5376 201.167 35.8017 201.618 35.9754C202.069 36.1491 202.55 36.229 203.032 36.2098C203.568 36.2033 204.101 36.1191 204.612 35.9598V34.0896C204.164 34.3327 203.662 34.46 203.152 34.4598C202.902 34.4737 202.652 34.4358 202.417 34.3479C202.182 34.2601 201.968 34.1244 201.789 33.9495C201.609 33.7747 201.468 33.5641 201.374 33.3318C201.28 33.0995 201.235 32.8504 201.242 32.5999C201.239 32.3506 201.287 32.1031 201.383 31.8728C201.478 31.6426 201.62 31.434 201.798 31.2601C201.977 31.0861 202.189 30.9506 202.422 30.8611C202.655 30.7717 202.903 30.7305 203.152 30.74C203.664 30.7366 204.167 30.8675 204.612 31.1199V29.2498C204.102 29.0852 203.569 29.0008 203.032 28.9998C202.55 28.9792 202.069 29.0577 201.619 29.2303C201.168 29.4029 200.758 29.6659 200.413 30.0032C200.068 30.3406 199.796 30.7451 199.614 31.1917C199.431 31.6383 199.342 32.1176 199.352 32.5999Z" fill="white"/>
<path d="M181.191 32.5999C181.179 33.0822 181.267 33.5615 181.448 34.0086C181.629 34.4557 181.9 34.8607 182.244 35.199C182.588 35.5373 182.998 35.8016 183.448 35.9754C183.898 36.1492 184.379 36.229 184.861 36.2098C185.4 36.204 185.936 36.1198 186.451 35.9598V34.0897C185.998 34.332 185.494 34.4592 184.981 34.4598C184.731 34.4723 184.482 34.4331 184.248 34.3445C184.015 34.256 183.802 34.1203 183.624 33.9456C183.445 33.7709 183.305 33.561 183.211 33.3294C183.118 33.0978 183.073 32.8496 183.081 32.5999C183.079 32.3532 183.127 32.1084 183.222 31.8807C183.317 31.653 183.457 31.4468 183.634 31.2742C183.81 31.1016 184.019 30.9664 184.249 30.8763C184.478 30.7862 184.724 30.7431 184.971 30.7498C185.485 30.7483 185.991 30.8791 186.441 31.1297V29.2596C185.927 29.0955 185.39 29.0112 184.851 29.0096C184.369 28.9889 183.888 29.0674 183.438 29.2401C182.989 29.4127 182.579 29.676 182.235 30.0135C181.891 30.351 181.62 30.7559 181.438 31.2025C181.257 31.649 181.169 32.1278 181.181 32.6097L181.191 32.5999Z" fill="white"/>
<path d="M210.088 28.9999C209.375 29.0059 208.679 29.2228 208.089 29.6235C207.499 30.0242 207.041 30.5907 206.773 31.2514C206.505 31.9121 206.438 32.6373 206.582 33.3359C206.725 34.0344 207.072 34.6752 207.579 35.1767C208.086 35.6782 208.731 36.018 209.431 36.1537C210.131 36.2895 210.855 36.215 211.513 35.9394C212.171 35.6638 212.732 35.1992 213.126 34.6049C213.52 34.0106 213.73 33.3132 213.728 32.6C213.733 32.1224 213.643 31.6484 213.461 31.2065C213.28 30.7646 213.011 30.3637 212.671 30.0278C212.332 29.6918 211.928 29.428 211.484 29.2514C211.04 29.0748 210.565 28.9892 210.088 28.9999ZM210.088 34.4301C209.725 34.4361 209.368 34.3336 209.063 34.1362C208.758 33.9387 208.519 33.655 208.376 33.3212C208.233 32.9874 208.192 32.6186 208.259 32.2616C208.327 31.9047 208.498 31.5758 208.753 31.3168C209.008 31.0579 209.334 30.8806 209.69 30.8075C210.045 30.7345 210.415 30.7691 210.751 30.9067C211.087 31.0442 211.375 31.2784 211.577 31.58C211.78 31.8816 211.888 32.2368 211.888 32.6C211.895 32.8396 211.853 33.0781 211.765 33.3012C211.677 33.5243 211.546 33.7275 211.378 33.8984C211.209 34.0693 211.009 34.2045 210.787 34.2958C210.565 34.3872 210.327 34.4329 210.088 34.4301Z" fill="white"/>
<path d="M196.024 31.8799L195.544 31.73C195.254 31.63 194.744 31.4901 194.744 31.0601C194.744 30.6301 195.124 30.4902 195.824 30.4902C196.283 30.5126 196.739 30.5829 197.184 30.7002V29.2202C196.628 29.0782 196.058 29.0041 195.484 29C193.884 29 192.914 29.8699 192.914 31.1699C192.939 31.656 193.129 32.1193 193.453 32.4829C193.776 32.8465 194.214 33.0887 194.694 33.1699L195.064 33.29C195.494 33.43 195.844 33.63 195.844 33.98C195.844 34.33 195.444 34.6299 194.574 34.6299C194.018 34.6155 193.467 34.5283 192.934 34.3701V35.98C193.554 36.096 194.183 36.1595 194.814 36.1699C196.144 36.1699 197.664 35.5801 197.664 33.8301C197.657 33.3605 197.491 32.9071 197.193 32.5439C196.895 32.1808 196.483 31.9294 196.024 31.8301V31.8799Z" fill="white"/>
<path d="M178.484 20.75C178.254 20.75 178.032 20.8417 177.869 21.0049C177.706 21.168 177.614 21.3894 177.614 21.6201V23.4502C177.601 23.5716 177.614 23.6943 177.651 23.8105C177.689 23.9267 177.751 24.0337 177.832 24.1245C177.914 24.2154 178.013 24.2882 178.125 24.3379C178.237 24.3876 178.357 24.4131 178.479 24.4131C178.601 24.4131 178.722 24.3876 178.834 24.3379C178.945 24.2882 179.045 24.2154 179.127 24.1245C179.208 24.0337 179.27 23.9267 179.307 23.8105C179.345 23.6943 179.357 23.5716 179.344 23.4502V21.6201C179.344 21.3911 179.254 21.1712 179.093 21.0083C178.932 20.8454 178.713 20.7526 178.484 20.75Z" fill="white"/>
<path d="M183.224 24.3398C183.455 24.3398 183.676 24.2481 183.84 24.085C184.003 23.9218 184.094 23.701 184.094 23.4702V19.2402C184.107 19.1188 184.095 18.9956 184.057 18.8794C184.02 18.7632 183.958 18.6563 183.877 18.5654C183.795 18.4746 183.695 18.4023 183.584 18.3525C183.472 18.3028 183.351 18.2769 183.229 18.2769C183.107 18.2769 182.987 18.3028 182.875 18.3525C182.763 18.4023 182.664 18.4746 182.582 18.5654C182.501 18.6563 182.439 18.7632 182.401 18.8794C182.364 18.9956 182.351 19.1188 182.364 19.2402V23.4702C182.364 23.6992 182.455 23.9187 182.616 24.0815C182.777 24.2444 182.995 24.3372 183.224 24.3398Z" fill="white"/>
<path d="M187.969 15.0898C187.738 15.0898 187.517 15.1816 187.354 15.3447C187.19 15.5079 187.099 15.7292 187.099 15.96V25.2002C187.086 25.3216 187.098 25.4443 187.136 25.5605C187.173 25.6767 187.235 25.7837 187.316 25.8745C187.398 25.9654 187.498 26.0382 187.609 26.0879C187.721 26.1376 187.842 26.1631 187.964 26.1631C188.086 26.1631 188.207 26.1376 188.318 26.0879C188.43 26.0382 188.529 25.9654 188.611 25.8745C188.693 25.7837 188.754 25.6767 188.792 25.5605C188.829 25.4443 188.842 25.3216 188.829 25.2002V15.96C188.829 15.7309 188.738 15.511 188.577 15.3481C188.416 15.1853 188.198 15.0925 187.969 15.0898Z" fill="white"/>
<path d="M193.579 23.4702V19.2402C193.592 19.1188 193.579 18.9956 193.542 18.8794C193.504 18.7632 193.443 18.6563 193.361 18.5654C193.279 18.4746 193.18 18.4023 193.068 18.3525C192.957 18.3028 192.836 18.2769 192.714 18.2769C192.592 18.2769 192.471 18.3028 192.359 18.3525C192.248 18.4023 192.148 18.4746 192.066 18.5654C191.985 18.6563 191.923 18.7632 191.886 18.8794C191.848 18.9956 191.836 19.1188 191.849 19.2402V23.4702C191.836 23.5916 191.848 23.7144 191.886 23.8306C191.923 23.9468 191.985 24.0537 192.066 24.1445C192.148 24.2354 192.248 24.3082 192.359 24.3579C192.471 24.4076 192.592 24.4331 192.714 24.4331C192.836 24.4331 192.957 24.4076 193.068 24.3579C193.18 24.3082 193.279 24.2354 193.361 24.1445C193.443 24.0537 193.504 23.9468 193.542 23.8306C193.579 23.7144 193.592 23.5916 193.579 23.4702Z" fill="white"/>
<path d="M197.462 20.75C197.348 20.75 197.235 20.7726 197.13 20.8164C197.025 20.8602 196.93 20.9245 196.85 21.0054C196.77 21.0863 196.707 21.1821 196.664 21.2876C196.622 21.3931 196.6 21.5063 196.602 21.6201V23.4502C196.602 23.6783 196.692 23.8968 196.854 24.0581C197.015 24.2194 197.234 24.3101 197.462 24.3101C197.69 24.3101 197.908 24.2194 198.07 24.0581C198.231 23.8968 198.322 23.6783 198.322 23.4502V21.6201C198.322 21.3911 198.231 21.1712 198.07 21.0083C197.909 20.8454 197.691 20.7526 197.462 20.75Z" fill="white"/>
<path d="M202.212 24.3398C202.441 24.3372 202.659 24.2444 202.82 24.0815C202.981 23.9187 203.072 23.6992 203.072 23.4702V19.2402C203.072 19.0121 202.981 18.7931 202.82 18.6318C202.658 18.4706 202.44 18.3799 202.212 18.3799C201.984 18.3799 201.765 18.4706 201.604 18.6318C201.442 18.7931 201.352 19.0121 201.352 19.2402V23.4702C201.35 23.584 201.372 23.6967 201.414 23.8022C201.457 23.9077 201.52 24.0036 201.6 24.0845C201.68 24.1654 201.775 24.2296 201.88 24.2734C201.985 24.3173 202.098 24.3399 202.212 24.3398Z" fill="white"/>
<path d="M207.821 25.2002V15.96C207.834 15.8386 207.821 15.7158 207.784 15.5996C207.746 15.4834 207.685 15.3765 207.603 15.2856C207.522 15.1948 207.422 15.122 207.31 15.0723C207.199 15.0225 207.078 14.9971 206.956 14.9971C206.834 14.9971 206.713 15.0225 206.602 15.0723C206.49 15.122 206.39 15.1948 206.309 15.2856C206.227 15.3765 206.166 15.4834 206.128 15.5996C206.09 15.7158 206.078 15.8386 206.091 15.96V25.2002C206.078 25.3216 206.09 25.4443 206.128 25.5605C206.166 25.6767 206.227 25.7837 206.309 25.8745C206.39 25.9654 206.49 26.0382 206.602 26.0879C206.713 26.1376 206.834 26.1631 206.956 26.1631C207.078 26.1631 207.199 26.1376 207.31 26.0879C207.422 26.0382 207.522 25.9654 207.603 25.8745C207.685 25.7837 207.746 25.6767 207.784 25.5605C207.821 25.4443 207.834 25.3216 207.821 25.2002Z" fill="white"/>
<path d="M211.693 24.3398C211.808 24.3412 211.921 24.3196 212.028 24.2764C212.134 24.2331 212.23 24.1694 212.311 24.0884C212.392 24.0073 212.456 23.9108 212.5 23.8047C212.543 23.6985 212.565 23.5848 212.563 23.4702V19.2402C212.576 19.1188 212.564 18.9956 212.526 18.8794C212.489 18.7632 212.427 18.6563 212.345 18.5654C212.264 18.4746 212.164 18.4023 212.052 18.3525C211.941 18.3028 211.82 18.2769 211.698 18.2769C211.576 18.2769 211.455 18.3028 211.344 18.3525C211.232 18.4023 211.132 18.4746 211.051 18.5654C210.969 18.6563 210.908 18.7632 210.87 18.8794C210.833 18.9956 210.82 19.1188 210.833 19.2402V23.4702C210.833 23.6992 210.923 23.9187 211.084 24.0815C211.245 24.2444 211.464 24.3372 211.693 24.3398Z" fill="white"/>
<path d="M216.438 20.75C216.209 20.7526 215.99 20.8454 215.829 21.0083C215.668 21.1712 215.578 21.3911 215.578 21.6201V23.4502C215.578 23.5631 215.6 23.675 215.644 23.7793C215.687 23.8836 215.75 23.9782 215.83 24.0581C215.91 24.138 216.005 24.2014 216.109 24.2446C216.213 24.2878 216.325 24.3101 216.438 24.3101C216.551 24.3101 216.663 24.2878 216.767 24.2446C216.872 24.2014 216.966 24.138 217.046 24.0581C217.126 23.9782 217.189 23.8836 217.233 23.7793C217.276 23.675 217.298 23.5631 217.298 23.4502V21.6201C217.299 21.5063 217.278 21.3931 217.236 21.2876C217.193 21.1821 217.13 21.0863 217.05 21.0054C216.97 20.9245 216.875 20.8602 216.77 20.8164C216.665 20.7726 216.552 20.75 216.438 20.75Z" fill="white"/>
<path d="M150.656 6.49487V56.1649" stroke="#F9F9F9" stroke-width="0.8" stroke-miterlimit="10"/>
<path d="M108.395 21.6946H104.475C103.139 21.6933 101.816 21.9554 100.581 22.4661C99.3468 22.9767 98.2252 23.726 97.2805 24.6707C96.3359 25.6153 95.5868 26.737 95.0762 27.9714C94.5656 29.2059 94.3034 30.5286 94.3047 31.8645V49.0349H98.3047C98.851 49.0349 99.375 48.8177 99.7614 48.4314C100.148 48.0451 100.365 47.5212 100.365 46.9749V31.8645C100.365 30.7771 100.797 29.7345 101.566 28.9656C102.334 28.1967 103.377 27.7649 104.465 27.7649H110.465V23.7649C110.465 23.4944 110.411 23.2263 110.308 22.9763C110.204 22.7264 110.053 22.4992 109.861 22.3079C109.67 22.1166 109.443 21.9651 109.193 21.8616C108.943 21.7581 108.675 21.7048 108.405 21.7048" fill="#F9F9F9"/>
<path d="M87.5835 21.6946H79.5835V15.5544C79.5835 15.0081 79.3664 14.4842 78.9801 14.0979C78.5938 13.7116 78.0698 13.4949 77.5235 13.4949H73.5235V38.8645C73.5206 40.2773 73.8171 41.6747 74.3935 42.9646C75.1852 44.7713 76.4867 46.3078 78.1386 47.386C79.7904 48.4641 81.7209 49.0374 83.6934 49.0349H87.6234C88.1698 49.0349 88.6938 48.8177 89.0801 48.4314C89.4664 48.0451 89.6834 47.5212 89.6834 46.9749V42.9749H83.6834C82.596 42.9749 81.5532 42.5426 80.7843 41.7737C80.0154 41.0048 79.5835 39.9621 79.5835 38.8748V27.7947H89.6735V23.7947C89.6735 23.2483 89.4564 22.7245 89.0701 22.3381C88.6838 21.9518 88.1598 21.7346 87.6134 21.7346" fill="#F9F9F9"/>
<path d="M66.8403 21.6946H52.7403C50.043 21.6946 47.4563 22.7663 45.5491 24.6736C43.6418 26.5808 42.5703 29.1673 42.5703 31.8645V38.8645C42.5703 41.5618 43.6418 44.1487 45.5491 46.0559C47.4563 47.9632 50.043 49.0349 52.7403 49.0349H66.8403C67.3867 49.0349 67.9106 48.8177 68.2969 48.4314C68.6833 48.0451 68.9003 47.5212 68.9003 46.9749V42.9749H52.4403C51.4083 42.8968 50.4438 42.4323 49.7393 41.6741C49.0349 40.9159 48.6424 39.9195 48.6403 38.8845V31.8845C48.643 30.7979 49.0758 29.7569 49.8441 28.9885C50.6124 28.2202 51.6537 27.7876 52.7403 27.7849H62.8303V28.9348C62.8303 30.0222 62.3984 31.0648 61.6295 31.8337C60.8606 32.6026 59.8177 33.0349 58.7303 33.0349H53.2403V37.0349C53.2403 37.3054 53.2936 37.5731 53.3972 37.823C53.5007 38.0729 53.6524 38.3002 53.8437 38.4915C54.035 38.6827 54.262 38.8342 54.512 38.9377C54.7619 39.0413 55.0298 39.0945 55.3003 39.0945H58.7303C60.0663 39.0958 61.3893 38.8336 62.6238 38.323C63.8583 37.8124 64.9799 37.0635 65.9245 36.1189C66.8691 35.1743 67.6182 34.0526 68.1288 32.8181C68.6395 31.5836 68.9016 30.2605 68.9003 28.9246V23.7947C68.9003 23.2483 68.6833 22.7245 68.2969 22.3381C67.9106 21.9518 67.3867 21.7346 66.8403 21.7346" fill="#F9F9F9"/>
<path d="M136.606 21.6848H122.506C119.809 21.6848 117.222 22.7561 115.315 24.6633C113.407 26.5706 112.336 29.1575 112.336 31.8547C112.336 31.8547 112.336 39.5647 112.336 39.8547C112.598 42.3557 113.777 44.6709 115.646 46.3533C117.515 48.0357 119.941 48.9659 122.456 48.9646H129.276L132.606 45.3347V48.9646H138.606V23.7947C138.609 23.2578 138.401 22.7414 138.027 22.3562C137.653 21.971 137.143 21.7477 136.606 21.7346M132.606 43.0046H122.506C121.967 43.006 121.433 42.9006 120.935 42.6951C120.437 42.4895 119.985 42.1879 119.604 41.8069C119.223 41.4259 118.921 40.9734 118.715 40.4753C118.51 39.9773 118.405 39.4433 118.406 38.9045V31.9045C118.405 31.3658 118.51 30.8323 118.715 30.3342C118.921 29.8362 119.223 29.3837 119.604 29.0027C119.985 28.6217 120.437 28.3196 120.935 28.114C121.433 27.9084 121.967 27.8031 122.506 27.8044H132.596L132.606 43.0046Z" fill="#F9F9F9"/>
<path d="M37.54 27.7947C36.7506 25.9827 35.4488 24.4411 33.7947 23.3591C32.1407 22.2772 30.2065 21.7021 28.23 21.7048H8.81L5.81 24.8645V21.7048H0V49.0447H4C4.54635 49.0447 5.07034 48.8275 5.45667 48.4412C5.84299 48.0548 6.06 47.531 6.06 46.9846V27.7947C6.06 27.7947 12.27 27.7947 12.38 27.7947C13.4048 27.8776 14.3608 28.3438 15.0576 29.0999C15.7544 29.8559 16.1409 30.8466 16.14 31.8748V49.0447H20.14C20.6864 49.0447 21.2104 48.8275 21.5967 48.4412C21.983 48.0548 22.2 47.531 22.2 46.9846V27.7947C22.2 27.7947 28.42 27.7947 28.53 27.7947C29.554 27.8799 30.5086 28.3467 31.205 29.1023C31.9013 29.8579 32.2886 30.8472 32.29 31.8748V49.0447H36.29C36.8364 49.0447 37.3603 48.8275 37.7466 48.4412C38.133 48.0548 38.35 47.531 38.35 46.9846V31.8748C38.35 30.4698 38.057 29.0802 37.49 27.7947" fill="#F9F9F9"/>
<defs>
<linearGradient id="paint0_linear_1091_3086" x1="167.718" y1="1.25994" x2="227.188" y2="60.7199" gradientUnits="userSpaceOnUse">
<stop stop-color="#1869FF"/>
<stop offset="0.31" stop-color="#02C8FF"/>
<stop offset="0.41" stop-color="#04C6FD"/>
<stop offset="0.46" stop-color="#0CBFF9"/>
<stop offset="0.5" stop-color="#19B4F3"/>
<stop offset="0.53" stop-color="#26ABED"/>
<stop offset="0.56" stop-color="#2BA6EA"/>
<stop offset="0.61" stop-color="#3A9AE2"/>
<stop offset="0.66" stop-color="#5486D5"/>
<stop offset="0.71" stop-color="#776AC3"/>
<stop offset="0.76" stop-color="#A446AC"/>
<stop offset="0.82" stop-color="#DB1B90"/>
<stop offset="0.85" stop-color="#FF007F"/>
<stop offset="0.91" stop-color="#FF3F46"/>
<stop offset="0.97" stop-color="#FF7913"/>
<stop offset="1" stop-color="#FF9000"/>
</linearGradient>
</defs>
</svg>
