<svg width="37" height="56" viewBox="0 0 37 56" fill="none" xmlns="http://www.w3.org/2000/svg">
<path d="M18.43 2.71386e-06C16.0102 -0.00131096 13.6139 0.474313 11.3779 1.39942C9.14196 2.32452 7.11014 3.68102 5.39862 5.3916C3.68711 7.10219 2.32939 9.13319 1.40308 11.3687C0.476759 13.6041 -3.56589e-07 16.0001 0 18.4199C0 32.1499 13.07 39.8101 17.62 49.1201C17.6937 49.2723 17.8088 49.4004 17.952 49.4902C18.0953 49.58 18.2609 49.6279 18.43 49.6279C18.5991 49.6279 18.7647 49.58 18.908 49.4902C19.0512 49.4004 19.1663 49.2723 19.24 49.1201C23.78 39.8101 36.85 32.1199 36.85 18.4199C36.85 13.5346 34.9093 8.84944 31.4549 5.39502C28.0005 1.9406 23.3153 2.71386e-06 18.43 2.71386e-06ZM18.43 30.9302C15.9557 30.9302 13.5371 30.1964 11.4798 28.8218C9.42254 27.4472 7.81911 25.4934 6.87225 23.2075C5.9254 20.9216 5.6777 18.4062 6.1604 15.9795C6.6431 13.5528 7.83455 11.3238 9.58411 9.57422C11.3337 7.82467 13.5627 6.63309 15.9894 6.15039C18.4161 5.66769 20.9314 5.91546 23.2173 6.86231C25.5033 7.80916 27.457 9.41247 28.8317 11.4697C30.2063 13.527 30.94 15.9457 30.94 18.4199C30.9374 21.737 29.6185 24.9177 27.273 27.2632C24.9275 29.6087 21.747 30.9275 18.43 30.9302Z" fill="url(#paint0_linear_1219_1148)"/>
<path d="M18.4319 27.4302C23.408 27.4302 27.4419 23.396 27.4419 18.4199C27.4419 13.4438 23.408 9.41016 18.4319 9.41016C13.4558 9.41016 9.42188 13.4438 9.42188 18.4199C9.42188 23.396 13.4558 27.4302 18.4319 27.4302Z" fill="url(#paint1_linear_1219_1148)"/>
<path d="M25.9706 46.8086C24.7651 46.4838 23.5339 46.2628 22.2906 46.1484C22.0406 46.4884 21.8106 46.8384 21.5806 47.1484C23.3383 47.4731 25.0287 48.0918 26.5806 48.9785C26.9606 49.2085 27.8106 49.8188 27.7506 50.2788C27.6853 50.4706 27.5632 50.6379 27.4006 50.7588C27.264 50.8681 27.1204 50.9681 26.9706 51.0586C24.4706 52.4886 18.5406 52.6385 15.6106 52.4185C14.2588 52.3247 12.9192 52.1004 11.6106 51.7485C11.0058 51.578 10.4221 51.3399 9.87061 51.0386C9.59061 50.8786 9.06062 50.5085 9.07062 50.1885C9.14062 49.7085 9.83061 49.1888 10.2506 48.9688C11.8251 48.0949 13.5358 47.4928 15.3106 47.1885C15.0606 46.8085 14.8106 46.4386 14.5406 46.0586C13.3059 46.1908 12.0848 46.4283 10.8906 46.7686C9.22062 47.2786 7.00062 48.2388 6.89062 50.2788C6.89062 51.7588 8.06064 52.8588 9.22064 53.5288C12.0781 54.9564 15.2367 55.6762 18.4306 55.6284C21.6254 55.7376 24.7934 55.0104 27.6206 53.5186C28.7706 52.8386 29.9906 51.7588 29.9606 50.2788C29.8706 48.2788 27.6606 47.2886 25.9706 46.8086Z" fill="url(#paint2_linear_1219_1148)"/>
<defs>
<linearGradient id="paint0_linear_1219_1148" x1="0" y1="24.8101" x2="36.85" y2="24.8101" gradientUnits="userSpaceOnUse">
<stop stop-color="#5B38AD"/>
<stop offset="1" stop-color="#9333CD"/>
</linearGradient>
<linearGradient id="paint1_linear_1219_1148" x1="9.41187" y1="18.4202" x2="27.4419" y2="18.4202" gradientUnits="userSpaceOnUse">
<stop stop-color="#5B38AD"/>
<stop offset="1" stop-color="#9333CD"/>
</linearGradient>
<linearGradient id="paint2_linear_1219_1148" x1="6.89062" y1="50.8785" x2="29.9606" y2="50.8785" gradientUnits="userSpaceOnUse">
<stop stop-color="#5B38AD"/>
<stop offset="1" stop-color="#9333CD"/>
</linearGradient>
</defs>
</svg>
