<svg width="52" height="37" viewBox="0 0 52 37" fill="none" xmlns="http://www.w3.org/2000/svg">
<path d="M47.7128 18.1572C47.5328 18.4872 47.3628 18.8172 47.1828 19.1572C46.5828 20.2972 45.9928 21.4472 45.4228 22.5972C45.3028 22.8472 45.1828 23.0972 45.0528 23.3472C44.9045 23.6387 44.7305 23.9166 44.5328 24.1772C44.1645 24.684 43.7151 25.1266 43.2028 25.4872L42.9828 25.6372C42.2715 25.4444 41.525 25.4204 40.8028 25.5673C36.7528 26.3673 37.1228 27.2572 28.6828 24.3972C26.7828 23.7472 24.8028 24.1572 22.8128 24.3972L22.3028 22.8572C21.6828 21.0072 21.0128 19.1673 20.3028 17.3273L19.8828 16.2372L20.4228 16.1472C20.4228 16.1472 20.5528 16.5372 20.7728 17.1472C21.4328 18.9172 22.9828 22.4172 24.8628 22.2272C27.0728 22.0372 27.2928 17.8873 27.2528 15.8073C27.2528 15.1173 27.1928 14.6472 27.1928 14.6472H27.9428C27.9428 14.6472 27.9428 15.0872 28.0128 15.7372C28.2028 17.8172 28.8128 22.1172 30.6628 22.0172C33.0628 21.9472 33.6628 15.7572 33.7928 12.7372C33.8428 11.7372 33.7928 11.1272 33.7928 11.1172H34.4628C34.4628 11.1172 34.3728 11.7572 34.2928 12.7272C34.0628 15.7272 33.9128 21.9572 36.2928 22.3572C38.1328 22.7072 39.2928 18.4072 39.6928 16.4172C39.8128 15.8172 39.8828 15.4172 39.8828 15.4172L40.6228 15.5472C40.516 15.875 40.4292 16.209 40.3628 16.5472C39.9528 18.4872 39.4128 22.5472 41.5628 23.2472C43.7128 23.9472 45.8028 20.5373 46.7028 18.8373C46.9828 18.3073 47.1528 17.9473 47.1528 17.9473L47.7128 18.1572Z" fill="url(#paint0_linear_1215_1147)"/>
<path d="M41.2812 15.5955C41.2816 15.7329 41.2536 15.869 41.199 15.9951C41.1445 16.1213 41.0645 16.2348 40.964 16.3286C40.8636 16.4225 40.745 16.4945 40.6155 16.5404C40.486 16.5863 40.3483 16.6051 40.2112 16.5955C39.9352 16.5676 39.6811 16.4326 39.5035 16.2195C39.3259 16.0064 39.2389 15.7321 39.2613 15.4556C39.2609 15.3182 39.2889 15.182 39.3435 15.0559C39.398 14.9298 39.478 14.8163 39.5784 14.7224C39.6788 14.6286 39.7975 14.5566 39.927 14.5106C40.0566 14.4647 40.1941 14.446 40.3312 14.4556C40.471 14.4612 40.608 14.4959 40.7334 14.5578C40.8589 14.6196 40.9699 14.7072 41.0594 14.8146C41.149 14.922 41.215 15.047 41.2532 15.1815C41.2914 15.3161 41.3009 15.457 41.2812 15.5955Z" fill="#F73334"/>
<path d="M48.4107 18.1659C48.411 18.3033 48.383 18.4393 48.3284 18.5654C48.2738 18.6916 48.1939 18.8051 48.0935 18.8989C47.9931 18.9928 47.8744 19.0649 47.7449 19.1109C47.6153 19.1568 47.4777 19.1755 47.3407 19.1659C47.2018 19.159 47.0659 19.1231 46.9416 19.0607C46.8174 18.9983 46.7076 18.9106 46.6191 18.8034C46.5306 18.6961 46.4655 18.5715 46.4279 18.4376C46.3903 18.3038 46.381 18.1635 46.4007 18.0259C46.4003 17.8885 46.4283 17.7525 46.4829 17.6264C46.5375 17.5002 46.6174 17.3867 46.7179 17.2929C46.8183 17.199 46.9369 17.1269 47.0665 17.0809C47.196 17.035 47.3336 17.0163 47.4707 17.0259C47.6095 17.0328 47.7454 17.0687 47.8697 17.1311C47.9939 17.1935 48.1038 17.2812 48.1922 17.3884C48.2807 17.4957 48.3458 17.6203 48.3834 17.7542C48.421 17.888 48.4303 18.0283 48.4107 18.1659Z" fill="#FEB101"/>
<path d="M28.54 14.8455C28.5404 14.9838 28.5122 15.1207 28.457 15.2476C28.4018 15.3744 28.3209 15.4885 28.2194 15.5825C28.1179 15.6765 27.998 15.7484 27.8673 15.7937C27.7365 15.839 27.5979 15.8565 27.46 15.8455C27.1847 15.8176 26.9315 15.6824 26.7555 15.4689C26.5795 15.2554 26.4948 14.9811 26.52 14.7056C26.5196 14.5682 26.5476 14.432 26.6022 14.3059C26.6568 14.1798 26.7368 14.0663 26.8372 13.9724C26.9376 13.8786 27.0562 13.8066 27.1858 13.7606C27.3153 13.7147 27.4529 13.696 27.59 13.7056C27.866 13.7335 28.1201 13.8684 28.2977 14.0816C28.4754 14.2947 28.5623 14.5689 28.54 14.8455Z" fill="#0638B3"/>
<path d="M21.1953 16.3536C21.1956 16.4911 21.1676 16.6272 21.1131 16.7533C21.0585 16.8794 20.9785 16.993 20.8781 17.0868C20.7777 17.1806 20.659 17.2527 20.5295 17.2986C20.4 17.3445 20.2624 17.3633 20.1253 17.3536C19.8493 17.3258 19.5952 17.1908 19.4175 16.9777C19.2399 16.7645 19.153 16.4902 19.1753 16.2136C19.1939 15.9484 19.317 15.7015 19.5177 15.5271C19.7184 15.3527 19.9801 15.2651 20.2453 15.2837C20.5105 15.3023 20.7575 15.4254 20.9319 15.6261C21.1063 15.8268 21.1939 16.0884 21.1753 16.3536H21.1953Z" fill="#03C9F0"/>
<path d="M35.7195 11.2134C35.6801 11.5124 35.5544 11.7935 35.3576 12.0221C35.1609 12.2507 34.9017 12.417 34.6119 12.5005C34.322 12.584 34.0142 12.5811 33.7259 12.4922C33.4377 12.4033 33.1817 12.2321 32.9893 11.9999C32.7968 11.7676 32.6764 11.4843 32.6426 11.1846C32.6088 10.8848 32.6632 10.5819 32.7991 10.3126C32.935 10.0433 33.1465 9.81952 33.4077 9.66869C33.6689 9.51786 33.9684 9.44649 34.2695 9.46337C34.6925 9.50643 35.0816 9.7141 35.3529 10.0415C35.6242 10.3689 35.7558 10.7897 35.7195 11.2134Z" fill="#6D41C8"/>
<path d="M45.5659 22.2969C45.4459 22.5369 44.9759 23.8368 44.8159 24.1068C44.5396 24.6557 44.1709 25.153 43.7259 25.5769L43.5359 25.7069C43.385 25.8065 43.228 25.8966 43.0659 25.9768C42.841 26.0953 42.6069 26.1957 42.3659 26.2769C41.902 26.4498 41.4234 26.5803 40.9359 26.6669C39.9812 26.8245 39.0122 26.8782 38.0459 26.8269C37.0926 26.779 36.1437 26.6653 35.2059 26.4868C34.7459 26.4068 34.2859 26.3069 33.8259 26.2069L32.4659 25.8868C31.5659 25.6668 30.6659 25.4569 29.7659 25.2769C27.9784 24.8982 26.1678 24.6376 24.3459 24.4968C22.5142 24.3868 20.6776 24.3868 18.8459 24.4968C18.3959 24.4968 17.9359 24.4969 17.4759 24.5769C17.0159 24.6569 16.5559 24.6369 16.0959 24.6869C15.1859 24.7769 14.2759 24.8869 13.3659 25.0269C11.5424 25.3102 9.74367 25.7349 7.98593 26.2969C7.10593 26.5769 6.23593 26.9069 5.37593 27.2969C4.51593 27.6869 3.67594 28.0568 2.83594 28.4768C3.23594 28.2368 3.63593 27.9768 4.04593 27.7568L4.66594 27.4069L5.28593 27.0769C6.12593 26.6569 6.97594 26.2569 7.85594 25.9169C8.73594 25.5769 9.61593 25.2568 10.5159 24.9968C11.4159 24.7368 12.3259 24.4969 13.2459 24.3069C14.1659 24.1169 15.0759 23.9569 16.0059 23.8269L17.396 23.6569C17.856 23.5969 18.3259 23.5568 18.7959 23.5168C19.2659 23.4768 19.7259 23.4369 20.1859 23.4069H21.5959C22.5259 23.4069 23.4659 23.4069 24.4059 23.4069C25.0359 23.4069 25.6659 23.4769 26.2859 23.5369L27.2159 23.6368C28.1459 23.7468 29.0759 23.8969 29.9959 24.0669L31.6959 24.4169C32.9559 24.6869 34.2059 24.9769 35.4359 25.2069C36.3223 25.372 37.2169 25.4888 38.1159 25.5569H38.7859H39.4559C39.8959 25.5569 40.3459 25.5568 40.7759 25.4968C41.1118 25.4611 41.4456 25.4078 41.7759 25.3369L42.0959 25.2668C42.5094 25.1565 42.9087 24.9988 43.2859 24.7969C43.6526 24.5826 43.9889 24.3203 44.2859 24.0168C44.6008 23.6803 44.8884 23.3192 45.146 22.9369" fill="url(#paint1_linear_1215_1147)"/>
<path d="M0 28.6442C0.61701 28.0456 1.28635 27.5034 2 27.0242L2.52 26.6742C2.69 26.5542 2.88 26.4542 3.06 26.3342C3.24 26.2142 3.41001 26.1142 3.60001 26.0142L4.14999 25.7141L4.71001 25.4142L5.28 25.1542L5.85001 24.8842L6.42999 24.6542L7.00999 24.4242L7.3 24.3042L7.60001 24.2141L8.78999 23.8142L10 23.5242L10.6 23.3741L11.21 23.2542L12.44 23.0342L13.67 22.8942L14.29 22.8242H14.91H16.15H16.77H17.39L18.62 22.8842L17.39 22.9741H16.77L16.16 23.0342L14.94 23.1742L14.33 23.2441L13.72 23.3441L12.51 23.5442C12.11 23.6142 11.71 23.7142 11.31 23.7942L10.71 23.9242C10.51 23.9242 10.31 24.0242 10.12 24.0742L8.92999 24.3942L7.75999 24.7642L7.47 24.8641L7.17999 24.9641L6.60001 25.1842L6.02 25.3942L5.46001 25.6442L4.89 25.8842L4.33 26.1442C2.80406 26.8254 1.35295 27.6633 0 28.6442Z" fill="#0638B3"/>
<path d="M46.0047 24.5234C45.8558 25.138 45.5724 25.7119 45.1747 26.2035C44.9764 26.4532 44.7591 26.6872 44.5247 26.9034C44.2882 27.1075 44.0376 27.2946 43.7747 27.4634C42.7246 28.1144 41.5357 28.5085 40.3047 28.6134H39.8547H38.4947C37.8975 28.5752 37.3032 28.5018 36.7147 28.3934C35.5425 28.1665 34.3989 27.8111 33.3047 27.3335C34.4847 27.4735 35.6347 27.6334 36.7947 27.7234C36.9379 27.7333 37.0815 27.7333 37.2247 27.7234H37.6547H38.5147C39.0858 27.7319 39.6569 27.7052 40.2247 27.6434C41.3524 27.5494 42.4536 27.2512 43.4747 26.7634C43.7347 26.6334 43.9747 26.4835 44.2147 26.3335C44.4505 26.1653 44.6774 25.985 44.8947 25.7935C45.331 25.433 45.7059 25.004 46.0047 24.5234Z" fill="#0638B3"/>
<path d="M15.7426 19.825C15.2142 15.4071 16.3673 10.9519 18.9726 7.34494C21.6417 3.72541 25.5633 1.22984 29.9726 0.344938C34.4234 -0.541393 39.0447 0.295036 42.9026 2.68503C46.7939 5.04757 49.6455 8.79672 50.8831 13.1776C52.1207 17.5584 51.6525 22.2456 49.5726 26.295C47.528 30.3235 44.0433 33.4358 39.8103 35.0141C35.5773 36.5925 30.9056 36.5215 26.7226 34.815C22.6085 33.0873 19.2955 29.8743 17.4426 25.815C19.4682 29.6891 22.8449 32.6851 26.9326 34.235C28.9418 34.9968 31.0738 35.3832 33.2226 35.375C35.3569 35.3577 37.4694 34.944 39.4526 34.155C43.437 32.5823 46.7042 29.5998 48.6326 25.775C50.5204 21.9448 50.9223 17.5511 49.7606 13.442C48.599 9.33291 45.9563 5.79991 42.3426 3.52499C38.6918 1.24919 34.3248 0.413504 30.0917 1.18063C25.8587 1.94776 22.0626 4.26282 19.4426 7.67502C16.7512 11.1292 15.4333 15.4571 15.7426 19.825Z" fill="url(#paint2_linear_1215_1147)"/>
<defs>
<linearGradient id="paint0_linear_1215_1147" x1="19.0528" y1="17.5772" x2="48.7128" y2="19.6772" gradientUnits="userSpaceOnUse">
<stop offset="0.06" stop-color="#0ED3F3"/>
<stop offset="0.07" stop-color="#13C6ED"/>
<stop offset="0.17" stop-color="#3964C4"/>
<stop offset="0.24" stop-color="#5127AA"/>
<stop offset="0.27" stop-color="#5A0FA0"/>
<stop offset="0.31" stop-color="#61109C"/>
<stop offset="0.38" stop-color="#761492"/>
<stop offset="0.45" stop-color="#981B81"/>
<stop offset="0.54" stop-color="#C62369"/>
<stop offset="0.64" stop-color="#FF2E4C"/>
<stop offset="0.65" stop-color="#FF3F43"/>
<stop offset="0.67" stop-color="#FF5E31"/>
<stop offset="0.69" stop-color="#FF7A23"/>
<stop offset="0.72" stop-color="#FF9016"/>
<stop offset="0.75" stop-color="#FFA10D"/>
<stop offset="0.79" stop-color="#FFAC07"/>
<stop offset="0.85" stop-color="#FFB303"/>
<stop offset="1" stop-color="#FFB502"/>
</linearGradient>
<linearGradient id="paint1_linear_1215_1147" x1="2.83594" y1="25.3468" x2="45.5659" y2="25.3468" gradientUnits="userSpaceOnUse">
<stop offset="0.06" stop-color="#0ED3F3"/>
<stop offset="0.07" stop-color="#13C6ED"/>
<stop offset="0.17" stop-color="#3964C4"/>
<stop offset="0.24" stop-color="#5127AA"/>
<stop offset="0.27" stop-color="#5A0FA0"/>
<stop offset="0.31" stop-color="#61109C"/>
<stop offset="0.38" stop-color="#761492"/>
<stop offset="0.45" stop-color="#981B81"/>
<stop offset="0.54" stop-color="#C62369"/>
<stop offset="0.64" stop-color="#FF2E4C"/>
<stop offset="0.65" stop-color="#FF3F43"/>
<stop offset="0.67" stop-color="#FF5E31"/>
<stop offset="0.69" stop-color="#FF7A23"/>
<stop offset="0.72" stop-color="#FF9016"/>
<stop offset="0.75" stop-color="#FFA10D"/>
<stop offset="0.79" stop-color="#FFAC07"/>
<stop offset="0.85" stop-color="#FFB303"/>
<stop offset="1" stop-color="#FFB502"/>
</linearGradient>
<linearGradient id="paint2_linear_1215_1147" x1="31.6126" y1="36.265" x2="35.4926" y2="-0.0250469" gradientUnits="userSpaceOnUse">
<stop stop-color="#9ACF00"/>
<stop offset="0.34" stop-color="#FC7E31"/>
<stop offset="0.66" stop-color="#FD314A"/>
<stop offset="1" stop-color="#03C9F0"/>
</linearGradient>
</defs>
</svg>
