<svg width="19" height="19" viewBox="0 0 19 19" fill="none" xmlns="http://www.w3.org/2000/svg">
<path fill-rule="evenodd" clip-rule="evenodd" d="M10.5591 6.86318L8.71122 0L6.86329 6.86318L0 8.71108L6.86329 10.559L8.71122 17.4222L9.02951 16.2401L9.12036 16.5775L9.40075 16.502L9.17986 15.6816L10.5591 10.559L15.6819 9.17972L16.5022 9.4006L16.5777 9.12022L16.2403 9.02937L17.4224 8.71108L10.5591 6.86318ZM16.2403 9.02937L15.4339 8.81223L15.3584 9.09262L15.6819 9.17972L16.2403 9.02937ZM9.17986 15.6816L9.09276 15.3581L8.81237 15.4336L9.02951 16.2401L9.17986 15.6816ZM9.73634 1.44304L9.72849 1.44515L9.70874 1.51853L9.58234 1.4845L9.45595 1.51853L9.43619 1.44515L9.42835 1.44304L9.58234 0.871108L9.73634 1.44304ZM10.0443 2.5869L10.3523 3.73077L10.0719 3.80626L9.76394 2.6624L10.0443 2.5869ZM10.6603 4.87463L10.9683 6.0185L10.6879 6.09399L10.3799 4.95012L10.6603 4.87463ZM11.2763 7.16236L11.4303 7.73429L12.0022 7.88828L11.9267 8.16867L11.1933 7.97121L10.9959 7.23785L11.2763 7.16236ZM13.1461 8.19627L14.29 8.50425L14.2145 8.78463L13.0706 8.47665L13.1461 8.19627ZM17.7195 9.43604L17.7216 9.4282L18.2936 9.58219L17.7216 9.73618L17.7195 9.72834L17.6461 9.70858L17.6802 9.58219L17.6461 9.4558L17.7195 9.43604ZM16.5777 10.0442L15.4339 10.3521L15.3584 10.0718L16.5022 9.76378L16.5777 10.0442ZM14.29 10.6601L13.1461 10.9681L13.0706 10.6877L14.2145 10.3797L14.29 10.6601ZM12.0022 11.2761L11.4303 11.4301L11.2763 12.002L10.9959 11.9265L11.1933 11.1932L11.9267 10.9957L12.0022 11.2761ZM10.9683 13.1459L10.6603 14.2898L10.3799 14.2143L10.6879 13.0704L10.9683 13.1459ZM10.3523 15.4336L10.0443 16.5775L9.76394 16.502L10.0719 15.3581L10.3523 15.4336ZM9.72849 17.7192L9.73634 17.7213L9.58234 18.2933L9.42835 17.7213L9.43619 17.7192L9.45595 17.6459L9.58234 17.6799L9.70874 17.6459L9.72849 17.7192ZM8.50438 14.2898L8.19639 13.1459L8.47678 13.0704L8.78477 14.2143L8.50438 14.2898ZM7.88841 12.002L7.73441 11.4301L7.16247 11.2761L7.23797 10.9957L7.97134 11.1932L8.1688 11.9265L7.88841 12.002ZM6.01859 10.9681L4.87471 10.6601L4.9502 10.3797L6.09408 10.6877L6.01859 10.9681ZM3.73083 10.3521L2.58694 10.0442L2.66244 9.76378L3.80632 10.0718L3.73083 10.3521ZM1.44517 9.72834L1.44306 9.73618L0.871122 9.58219L1.44306 9.4282L1.44517 9.43604L1.51856 9.4558L1.48453 9.58219L1.51856 9.70858L1.44517 9.72834ZM2.58694 9.12022L3.73083 8.81223L3.80632 9.09262L2.66244 9.4006L2.58694 9.12022ZM4.87471 8.50425L6.01859 8.19627L6.09408 8.47665L4.9502 8.78463L4.87471 8.50425ZM7.16247 7.88828L7.73441 7.73429L7.88841 7.16236L8.1688 7.23785L7.97134 7.97121L7.23797 8.16867L7.16247 7.88828ZM8.19639 6.0185L8.50438 4.87463L8.78477 4.95013L8.47678 6.09399L8.19639 6.0185ZM8.81237 3.73077L9.12036 2.5869L9.40075 2.6624L9.09276 3.80626L8.81237 3.73077Z" fill="white"/>
</svg>
